<svg width="21" height="21" viewBox="0 0 21 21" fill="none" xmlns="http://www.w3.org/2000/svg">
<path d="M7.75 12.7508L13.75 6.75079L7.75 12.7508ZM18.25 3.25779V20.2508L14.5 18.7508L10.75 20.2508L7 18.7508L3.25 20.2508V3.25779C3.25 2.14979 4.056 1.20079 5.157 1.07279C8.87319 0.641426 12.6268 0.641426 16.343 1.07279C17.443 1.20079 18.25 2.14979 18.25 3.25779ZM8.5 7.50079H8.508V7.50879H8.5V7.50079ZM8.875 7.50079C8.875 7.60025 8.83549 7.69563 8.76517 7.76596C8.69484 7.83628 8.59946 7.87579 8.5 7.87579C8.40054 7.87579 8.30516 7.83628 8.23483 7.76596C8.16451 7.69563 8.125 7.60025 8.125 7.50079C8.125 7.40133 8.16451 7.30595 8.23483 7.23563C8.30516 7.1653 8.40054 7.12579 8.5 7.12579C8.59946 7.12579 8.69484 7.1653 8.76517 7.23563C8.83549 7.30595 8.875 7.40133 8.875 7.50079ZM13 12.0008H13.008V12.0088H13V12.0008ZM13.375 12.0008C13.375 12.1002 13.3355 12.1956 13.2652 12.266C13.1948 12.3363 13.0995 12.3758 13 12.3758C12.9005 12.3758 12.8052 12.3363 12.7348 12.266C12.6645 12.1956 12.625 12.1002 12.625 12.0008C12.625 11.9013 12.6645 11.806 12.7348 11.7356C12.8052 11.6653 12.9005 11.6258 13 11.6258C13.0995 11.6258 13.1948 11.6653 13.2652 11.7356C13.3355 11.806 13.375 11.9013 13.375 12.0008Z" fill="url(#paint0_linear_401_2823)"/>
<path d="M7.75 12.7508L13.75 6.75079M18.25 3.25779V20.2508L14.5 18.7508L10.75 20.2508L7 18.7508L3.25 20.2508V3.25779C3.25 2.14979 4.056 1.20079 5.157 1.07279C8.87319 0.641426 12.6268 0.641426 16.343 1.07279C17.443 1.20079 18.25 2.14979 18.25 3.25779ZM8.5 7.50079H8.508V7.50879H8.5V7.50079ZM8.875 7.50079C8.875 7.60025 8.83549 7.69563 8.76517 7.76596C8.69484 7.83628 8.59946 7.87579 8.5 7.87579C8.40054 7.87579 8.30516 7.83628 8.23483 7.76596C8.16451 7.69563 8.125 7.60025 8.125 7.50079C8.125 7.40133 8.16451 7.30595 8.23483 7.23563C8.30516 7.1653 8.40054 7.12579 8.5 7.12579C8.59946 7.12579 8.69484 7.1653 8.76517 7.23563C8.83549 7.30595 8.875 7.40133 8.875 7.50079ZM13 12.0008H13.008V12.0088H13V12.0008ZM13.375 12.0008C13.375 12.1002 13.3355 12.1956 13.2652 12.266C13.1948 12.3363 13.0995 12.3758 13 12.3758C12.9005 12.3758 12.8052 12.3363 12.7348 12.266C12.6645 12.1956 12.625 12.1002 12.625 12.0008C12.625 11.9013 12.6645 11.806 12.7348 11.7356C12.8052 11.6653 12.9005 11.6258 13 11.6258C13.0995 11.6258 13.1948 11.6653 13.2652 11.7356C13.3355 11.806 13.375 11.9013 13.375 12.0008Z" stroke="#040613" stroke-width="1.5" stroke-linecap="round" stroke-linejoin="round"/>
<path d="M7.75 12.7507L13.75 6.75073M8.5 7.50073H8.508V7.50873H8.5V7.50073ZM8.875 7.50073C8.875 7.60019 8.83549 7.69557 8.76517 7.7659C8.69484 7.83622 8.59946 7.87573 8.5 7.87573C8.40054 7.87573 8.30516 7.83622 8.23483 7.7659C8.16451 7.69557 8.125 7.60019 8.125 7.50073C8.125 7.40128 8.16451 7.30589 8.23483 7.23557C8.30516 7.16524 8.40054 7.12573 8.5 7.12573C8.59946 7.12573 8.69484 7.16524 8.76517 7.23557C8.83549 7.30589 8.875 7.40128 8.875 7.50073ZM13 12.0007H13.008V12.0087H13V12.0007ZM13.375 12.0007C13.375 12.1002 13.3355 12.1956 13.2652 12.2659C13.1948 12.3362 13.0995 12.3757 13 12.3757C12.9005 12.3757 12.8052 12.3362 12.7348 12.2659C12.6645 12.1956 12.625 12.1002 12.625 12.0007C12.625 11.9013 12.6645 11.8059 12.7348 11.7356C12.8052 11.6652 12.9005 11.6257 13 11.6257C13.0995 11.6257 13.1948 11.6652 13.2652 11.7356C13.3355 11.8059 13.375 11.9013 13.375 12.0007Z" stroke="white" stroke-width="1.5" stroke-linecap="round" stroke-linejoin="round"/>
<defs>
<linearGradient id="paint0_linear_401_2823" x1="10.75" y1="0.749268" x2="10.75" y2="20.2508" gradientUnits="userSpaceOnUse">
<stop stop-color="#FF3939"/>
<stop offset="1" stop-color="#770000"/>
</linearGradient>
</defs>
</svg>
