<svg width="21" height="22" viewBox="0 0 21 22" fill="none" xmlns="http://www.w3.org/2000/svg">
<path d="M7.75 13.2508L13.75 7.25079M18.25 3.75779V20.7508L14.5 19.2508L10.75 20.7508L7 19.2508L3.25 20.7508V3.75779C3.25 2.64979 4.056 1.70079 5.157 1.57279C8.87319 1.14143 12.6268 1.14143 16.343 1.57279C17.443 1.70079 18.25 2.64979 18.25 3.75779ZM8.5 8.00079H8.508V8.00879H8.5V8.00079ZM8.875 8.00079C8.875 8.10025 8.83549 8.19563 8.76517 8.26596C8.69484 8.33628 8.59946 8.37579 8.5 8.37579C8.40054 8.37579 8.30516 8.33628 8.23483 8.26596C8.16451 8.19563 8.125 8.10025 8.125 8.00079C8.125 7.90133 8.16451 7.80595 8.23483 7.73563C8.30516 7.6653 8.40054 7.62579 8.5 7.62579C8.59946 7.62579 8.69484 7.6653 8.76517 7.73563C8.83549 7.80595 8.875 7.90133 8.875 8.00079ZM13 12.5008H13.008V12.5088H13V12.5008ZM13.375 12.5008C13.375 12.6002 13.3355 12.6956 13.2652 12.766C13.1948 12.8363 13.0995 12.8758 13 12.8758C12.9005 12.8758 12.8052 12.8363 12.7348 12.766C12.6645 12.6956 12.625 12.6002 12.625 12.5008C12.625 12.4013 12.6645 12.306 12.7348 12.2356C12.8052 12.1653 12.9005 12.1258 13 12.1258C13.0995 12.1258 13.1948 12.1653 13.2652 12.2356C13.3355 12.306 13.375 12.4013 13.375 12.5008Z" stroke="#040613" stroke-width="1.5" stroke-linecap="round" stroke-linejoin="round"/>
</svg>
