<svg width="50" height="49" viewBox="0 0 50 49" fill="none" xmlns="http://www.w3.org/2000/svg">
<g filter="url(#filter0_d_401_3029)">
<path d="M25 11.5C20.377 11.5 16.568 13.256 16.058 17.5C15.992 18.05 16.448 18.5 17 18.5H33C33.552 18.5 34.008 18.05 33.942 17.5C33.432 13.256 29.623 11.5 25 11.5ZM28.001 14.5H28H28.001ZM25.001 15.5H25H25.001Z" fill="url(#paint0_linear_401_3029)"/>
<path d="M28.001 14.5H28M25.001 15.5H25M25 11.5C20.377 11.5 16.568 13.256 16.058 17.5C15.992 18.05 16.448 18.5 17 18.5H33C33.552 18.5 34.008 18.05 33.942 17.5C33.432 13.256 29.623 11.5 25 11.5Z" stroke="#040613" stroke-width="1.5" stroke-linecap="round" stroke-linejoin="round"/>
<path d="M16 24.5H34V26.5C34 27.2956 33.6839 28.0587 33.1213 28.6213C32.5587 29.1839 31.7956 29.5 31 29.5H19C18.2044 29.5 17.4413 29.1839 16.8787 28.6213C16.3161 28.0587 16 27.2956 16 26.5V24.5Z" fill="url(#paint1_linear_401_3029)"/>
<path d="M33 24.5H17M16 24.5H34V26.5C34 27.2956 33.6839 28.0587 33.1213 28.6213C32.5587 29.1839 31.7956 29.5 31 29.5H19C18.2044 29.5 17.4413 29.1839 16.8787 28.6213C16.3161 28.0587 16 27.2956 16 26.5V24.5Z" stroke="#040613" stroke-width="1.5" stroke-linecap="round" stroke-linejoin="round"/>
<path d="M28 24.5L31.379 21.121C31.576 20.9241 31.8099 20.7679 32.0672 20.6613C32.3246 20.5548 32.6004 20.4999 32.879 20.5H33C33.5304 20.5 34.0391 20.7107 34.4142 21.0858C34.7893 21.4609 35 21.9696 35 22.5C35 23.0304 34.7893 23.5391 34.4142 23.9142C34.0391 24.2893 33.5304 24.5 33 24.5H17C16.4696 24.5 15.9609 24.2893 15.5858 23.9142C15.2107 23.5391 15 23.0304 15 22.5C15 21.9696 15.2107 21.4609 15.5858 21.0858C15.9609 20.7107 16.4696 20.5 17 20.5H21.515C23.106 20.5001 24.6319 21.1321 25.757 22.257L28 24.5Z" fill="#BAEF22"/>
<path d="M16 24.5H34M28 24.5L31.379 21.121C31.576 20.9241 31.8099 20.7679 32.0672 20.6613C32.3246 20.5548 32.6004 20.4999 32.879 20.5H33C33.5304 20.5 34.0391 20.7107 34.4142 21.0858C34.7893 21.4609 35 21.9696 35 22.5C35 23.0304 34.7893 23.5391 34.4142 23.9142C34.0391 24.2893 33.5304 24.5 33 24.5H17C16.4696 24.5 15.9609 24.2893 15.5858 23.9142C15.2107 23.5391 15 23.0304 15 22.5C15 21.9696 15.2107 21.4609 15.5858 21.0858C15.9609 20.7107 16.4696 20.5 17 20.5H21.515C23.106 20.5001 24.6319 21.1321 25.757 22.257L28 24.5Z" stroke="#040613" stroke-width="1.5" stroke-linecap="round" stroke-linejoin="round"/>
</g>
<defs>
<filter id="filter0_d_401_3029" x="0.25" y="0.5" width="49.5" height="48" filterUnits="userSpaceOnUse" color-interpolation-filters="sRGB">
<feFlood flood-opacity="0" result="BackgroundImageFix"/>
<feColorMatrix in="SourceAlpha" type="matrix" values="0 0 0 0 0 0 0 0 0 0 0 0 0 0 0 0 0 0 127 0" result="hardAlpha"/>
<feOffset dy="4"/>
<feGaussianBlur stdDeviation="7"/>
<feComposite in2="hardAlpha" operator="out"/>
<feColorMatrix type="matrix" values="0 0 0 0 0.933333 0 0 0 0 0.647059 0 0 0 0 0.313726 0 0 0 0.5 0"/>
<feBlend mode="normal" in2="BackgroundImageFix" result="effect1_dropShadow_401_3029"/>
<feBlend mode="normal" in="SourceGraphic" in2="effect1_dropShadow_401_3029" result="shape"/>
</filter>
<linearGradient id="paint0_linear_401_3029" x1="25" y1="11.5" x2="29" y2="21" gradientUnits="userSpaceOnUse">
<stop stop-color="#EEA550"/>
<stop offset="1" stop-color="#FF9315"/>
</linearGradient>
<linearGradient id="paint1_linear_401_3029" x1="25" y1="24.5" x2="27.1928" y2="31.833" gradientUnits="userSpaceOnUse">
<stop stop-color="#EEA550"/>
<stop offset="1" stop-color="#FF9315"/>
</linearGradient>
</defs>
</svg>
