<svg width="22" height="20" viewBox="0 0 22 20" fill="none" xmlns="http://www.w3.org/2000/svg">
<path d="M14.001 4H14M11.001 5H11M11 1C6.37701 1 2.56801 2.756 2.05801 7C1.99201 7.55 2.44801 8 3.00001 8H19C19.552 8 20.008 7.55 19.942 7C19.432 2.756 15.623 1 11 1Z" stroke="#040613" stroke-width="1.5" stroke-linecap="round" stroke-linejoin="round"/>
<path d="M14 14L17.379 10.621C17.576 10.4241 17.8099 10.2679 18.0672 10.1613C18.3246 10.0548 18.6004 9.99994 18.879 10H19C19.5304 10 20.0391 10.2107 20.4142 10.5858C20.7893 10.9609 21 11.4696 21 12C21 12.5304 20.7893 13.0391 20.4142 13.4142C20.0391 13.7893 19.5304 14 19 14H3C2.46957 14 1.96086 13.7893 1.58579 13.4142C1.21071 13.0391 1 12.5304 1 12C1 11.4696 1.21071 10.9609 1.58579 10.5858C1.96086 10.2107 2.46957 10 3 10H7.515C9.10603 10.0001 10.6319 10.6321 11.757 11.757L14 14ZM2 14H20V16C20 16.7956 19.6839 17.5587 19.1213 18.1213C18.5587 18.6839 17.7956 19 17 19H5C4.20435 19 3.44129 18.6839 2.87868 18.1213C2.31607 17.5587 2 16.7956 2 16V14Z" stroke="#040613" stroke-width="1.5" stroke-linecap="round" stroke-linejoin="round"/>
</svg>
