<svg width="22" height="6" viewBox="0 0 22 6" fill="none" xmlns="http://www.w3.org/2000/svg">
<path d="M17.665 3.00008C17.665 3.9224 18.4127 4.67008 19.335 4.67008C20.2573 4.67008 21.005 3.9224 21.005 3.00008C21.005 2.07776 20.2573 1.33008 19.335 1.33008C18.4127 1.33008 17.665 2.07776 17.665 3.00008Z" stroke="#040613" stroke-width="1.5" stroke-miterlimit="10"/>
<path d="M9.33498 3.00008C9.33498 3.9224 10.0827 4.67008 11.005 4.67008C11.9273 4.67008 12.675 3.9224 12.675 3.00008C12.675 2.07776 11.9273 1.33008 11.005 1.33008C10.0827 1.33008 9.33498 2.07776 9.33498 3.00008Z" stroke="#040613" stroke-width="1.5" stroke-miterlimit="10"/>
<path d="M0.995026 3.00008C0.995026 3.9224 1.74271 4.67008 2.66502 4.67008C3.58734 4.67008 4.33502 3.9224 4.33502 3.00008C4.33502 2.07776 3.58734 1.33008 2.66502 1.33008C1.74271 1.33008 0.995026 2.07776 0.995026 3.00008Z" stroke="#040613" stroke-width="1.5" stroke-miterlimit="10"/>
</svg>
