<svg width="21" height="20" viewBox="0 0 21 20" fill="none" xmlns="http://www.w3.org/2000/svg">
<path d="M5.04654 6.0121C4.94029 5.984 4.84152 5.93288 4.75721 5.86238C4.6729 5.79187 4.60512 5.7037 4.55866 5.6041C4.5122 5.5045 4.4882 5.39591 4.48835 5.28601C4.4885 5.1761 4.51281 5.06757 4.55954 4.9681L6.21954 1.4331C6.28 1.30365 6.37618 1.19416 6.49676 1.11752C6.61734 1.04088 6.75731 1.00028 6.90018 1.00049C7.04305 1.0007 7.1829 1.04172 7.30325 1.11871C7.4236 1.19571 7.51946 1.30548 7.57954 1.4351L8.31154 3.0041C8.33768 2.99362 8.36439 2.9846 8.39154 2.9771C10.1185 2.51457 11.9497 2.63277 13.6029 3.31347C15.2562 3.99417 16.6397 5.1996 17.5403 6.74405C18.441 8.2885 18.8088 10.0863 18.5871 11.8603C18.3654 13.6344 17.5664 15.2863 16.3134 16.5616C15.0604 17.8369 13.4227 18.6648 11.6528 18.9177C9.88294 19.1706 8.07899 18.8345 6.51893 17.9612C4.95887 17.0878 3.72927 15.7258 3.01958 14.0848C2.30988 12.4438 2.15948 10.615 2.59154 8.8801C2.61544 8.7845 2.65794 8.69454 2.71661 8.61536C2.77527 8.53619 2.84896 8.46934 2.93346 8.41864C3.01796 8.36794 3.11162 8.33438 3.20909 8.31987C3.30657 8.30537 3.40594 8.3102 3.50154 8.3341C3.59714 8.358 3.6871 8.4005 3.76628 8.45917C3.84546 8.51784 3.91231 8.59152 3.96301 8.67602C4.01371 8.76053 4.04727 8.85419 4.06177 8.95166C4.07628 9.04913 4.07144 9.1485 4.04754 9.2441C3.69716 10.6522 3.81697 12.1363 4.38871 13.47C4.96045 14.8037 5.95272 15.9138 7.21419 16.6309C8.47565 17.3481 9.93707 17.6329 11.3755 17.4421C12.814 17.2512 14.1505 16.595 15.1813 15.5737C16.2121 14.5524 16.8805 13.2219 17.0846 11.7853C17.2888 10.3487 17.0174 8.88469 16.3119 7.61667C15.6064 6.34865 14.5055 5.34619 13.1771 4.76219C11.8488 4.17819 10.3658 4.04471 8.95454 4.3821L9.69454 5.9651C9.75512 6.09439 9.77754 6.23828 9.75916 6.37987C9.74078 6.52145 9.68237 6.65485 9.59079 6.76438C9.49922 6.87392 9.37828 6.95504 9.24219 6.99821C9.1061 7.04139 8.96051 7.04482 8.82254 7.0081L5.04654 6.0121Z" fill="#040613"/>
</svg>
