<svg width="86" height="44" viewBox="0 0 86 44" fill="none" xmlns="http://www.w3.org/2000/svg">
<path fill-rule="evenodd" clip-rule="evenodd" d="M55.4433 27.2632C55.4701 26.9869 55.5898 26.7298 55.7865 26.5292C56.0167 26.2944 56.3266 26.1641 56.6554 26.1641H57.6936C57.9874 26.1641 58.2661 26.2684 58.4865 26.4581C58.534 26.4174 58.5849 26.3802 58.6386 26.3469C58.8316 26.2275 59.0524 26.1642 59.2794 26.1642C59.5061 26.1642 59.726 26.227 59.919 26.3459C60.0313 26.4152 60.1307 26.5016 60.2142 26.6016C60.5478 26.3163 60.9587 26.1638 61.405 26.1638C61.7284 26.1638 62.0362 26.2441 62.3105 26.4008C62.5184 26.247 62.7694 26.1634 63.0326 26.1634C63.1379 26.1634 63.2425 26.1769 63.3439 26.2037C63.4454 26.1769 63.55 26.1634 63.6552 26.1634C63.7608 26.1634 63.8657 26.1769 63.9674 26.2038C64.0689 26.1769 64.1736 26.1634 64.2789 26.1634C64.5724 26.1634 64.8505 26.2678 65.0707 26.4575C65.1155 26.419 65.1632 26.3836 65.2136 26.3518L65.2235 26.3456L65.2294 26.342C65.4207 26.2253 65.6398 26.1638 65.8639 26.1638C66.0857 26.1638 66.3014 26.2239 66.4916 26.3379L66.5034 26.345L66.515 26.3523C66.7035 26.4719 66.8539 26.64 66.9536 26.8397L66.9579 26.8483L66.9627 26.8388C67.0614 26.6417 67.2106 26.4758 67.3963 26.3568L67.4128 26.3463L67.4296 26.3363C67.6186 26.2246 67.8321 26.1663 68.0516 26.1663C68.2749 26.1663 68.4928 26.2271 68.6838 26.3428L68.6921 26.3479L68.7003 26.3531C68.7709 26.3978 68.8364 26.4493 68.8959 26.5066C69.1236 26.2859 69.4237 26.1641 69.742 26.1641C69.923 26.1641 70.0997 26.2038 70.2609 26.2803C70.3513 26.2378 70.4467 26.2066 70.5453 26.1872C70.8571 26.1261 71.183 26.1904 71.4488 26.3644C71.4771 26.383 71.5045 26.4026 71.5311 26.4234C71.5628 26.3985 71.5956 26.3752 71.6297 26.3535L71.6398 26.347L71.6499 26.3409C71.8409 26.2249 72.0592 26.1638 72.2827 26.1638C72.5043 26.1638 72.7196 26.2241 72.9099 26.3376L72.9217 26.3447L72.9333 26.352C73.1221 26.4714 73.2724 26.6398 73.3721 26.8396L73.9898 28.0767C74.1402 28.37 74.1647 28.7068 74.0587 29.0189C73.9554 29.3228 73.7403 29.5701 73.4538 29.7147C73.284 29.8005 73.0966 29.8456 72.9064 29.8456C72.6864 29.8456 72.4712 29.786 72.2825 29.6732C72.2067 29.7182 72.1261 29.7549 72.0418 29.7828C71.7717 29.8722 71.4836 29.865 71.2211 29.7635C71.081 29.8177 70.9318 29.8454 70.7802 29.8454C70.5989 29.8454 70.4217 29.8063 70.2599 29.7302C70.0988 29.806 69.9225 29.8454 69.742 29.8454C69.6586 29.8454 69.5756 29.8371 69.4942 29.8204C69.2875 29.9713 69.039 30.0535 68.7787 30.0535C68.534 30.0535 68.2986 29.9811 68.0982 29.8454H68.0045C67.8044 29.9809 67.5688 30.0535 67.3244 30.0535C67.0739 30.0535 66.8335 29.9779 66.6309 29.8371C66.5834 29.8427 66.5356 29.8456 66.4877 29.8456C66.2676 29.8456 66.0525 29.786 65.8637 29.6732C65.7881 29.7181 65.7076 29.7548 65.6234 29.7827C65.4474 29.841 65.261 29.8586 65.0786 29.8344C64.8758 29.9762 64.6349 30.0524 64.3834 30.0524C64.1385 30.0524 63.9024 29.9802 63.7018 29.8444H63.0326C62.7703 29.8444 62.5197 29.7617 62.312 29.6089C62.0372 29.7657 61.7287 29.8456 61.405 29.8456C61.1095 29.8456 60.8251 29.779 60.5669 29.6465C60.5298 29.6707 60.4912 29.6929 60.4515 29.713C60.1664 29.8573 59.842 29.8833 59.5369 29.7885L59.522 29.7839L59.5072 29.7787C59.4279 29.7512 59.3518 29.7159 59.2801 29.6734C59.091 29.786 58.8763 29.8455 58.6561 29.8455C58.4906 29.8455 58.3277 29.8116 58.1763 29.7464C58.0246 29.8117 57.8607 29.8454 57.6936 29.8454C57.5126 29.8454 57.3358 29.8058 57.1744 29.7296C57.013 29.8058 56.8363 29.8454 56.6554 29.8454C56.3303 29.8454 56.0229 29.7186 55.7932 29.4884C55.5922 29.2871 55.4703 29.0267 55.4433 28.7469C55.4162 29.0289 55.2927 29.2913 55.089 29.493C54.8596 29.7202 54.554 29.8456 54.2312 29.8456C54.0502 29.8456 53.8735 29.806 53.7121 29.7299C53.5507 29.806 53.3739 29.8456 53.193 29.8456C53.0413 29.8456 52.8919 29.8179 52.7518 29.7637C52.6126 29.8176 52.4644 29.8456 52.3144 29.8456C52.0943 29.8456 51.8793 29.786 51.6905 29.6732C51.6148 29.7182 51.5341 29.7549 51.4498 29.7828C51.1796 29.8722 50.8914 29.865 50.6289 29.7634C50.4888 29.8177 50.3395 29.8454 50.1878 29.8454C50.0065 29.8454 49.8293 29.8063 49.6675 29.7302C49.5065 29.806 49.3301 29.8454 49.1495 29.8454C48.9245 29.8454 48.7076 29.7847 48.5187 29.6704C48.2731 29.7873 48.0055 29.8455 47.7291 29.8455C47.3093 29.8455 46.9202 29.7114 46.5978 29.4577C46.5876 29.4686 46.5773 29.4794 46.5667 29.4899C46.3374 29.7188 46.0315 29.8454 45.7075 29.8454C45.4543 29.8454 45.2119 29.7684 45.0084 29.6256C44.8048 29.7684 44.5624 29.8455 44.3092 29.8455H43.271C43.1877 29.8455 43.1047 29.8371 43.0234 29.8204C42.8167 29.9713 42.5682 30.0535 42.3079 30.0535C42.0633 30.0535 41.8278 29.9811 41.6275 29.8454H41.5338C41.3336 29.9809 41.0981 30.0535 40.8537 30.0535C40.5803 30.0535 40.3196 29.9634 40.107 29.7979C39.855 30.942 39.3041 31.9986 38.4334 32.8387C38.2444 33.021 38.04 33.1863 37.8231 33.3338C38.0333 34.1592 38.0972 35.0134 38.1664 35.8602L38.1853 36.0914L37.7563 36.2712L37.8476 37.8871L37.5996 37.9561C37.0358 38.1131 36.4932 38.2535 35.92 38.3371C35.8892 38.9993 35.8625 39.6617 35.842 40.3243C35.8375 40.4709 35.833 40.6175 35.8292 40.7641C35.8355 40.7725 35.8418 40.7809 35.8479 40.7894C35.8634 40.8106 35.8784 40.8323 35.8925 40.8545L35.8928 40.8552C35.9052 40.8746 35.9172 40.8943 35.9287 40.9143C36.1162 41.2406 36.2039 41.65 36.2193 42.0237C36.2455 42.6607 36.0595 43.3377 35.4957 43.7017C35.0334 44.0002 34.4314 44.0243 33.9525 43.7495C33.3656 43.4128 33.1462 42.7742 33.1462 42.1285C33.1462 42.1097 33.1464 42.0909 33.1469 42.0721C33.147 42.0667 33.1471 42.0612 33.1472 42.0557C33.1476 42.041 33.1483 42.0264 33.149 42.0117C33.1492 42.0073 33.1493 42.0029 33.1497 41.9984C33.1507 41.9796 33.1518 41.9609 33.1532 41.9421C33.1535 41.9383 33.1539 41.9344 33.1543 41.9305C33.1553 41.9157 33.1567 41.9009 33.1581 41.886C33.1584 41.8811 33.1591 41.8762 33.1595 41.8713C33.1612 41.853 33.1633 41.8348 33.1656 41.8166L33.167 41.8067C33.1692 41.7913 33.1713 41.776 33.1736 41.7606C33.1743 41.7555 33.175 41.7504 33.176 41.7452C33.1781 41.7312 33.1806 41.717 33.1831 41.7029C33.1838 41.6988 33.1845 41.6946 33.1852 41.6904C33.1884 41.6725 33.192 41.6546 33.1957 41.6367C33.1968 41.6324 33.1975 41.628 33.1985 41.6237C33.2017 41.6097 33.2046 41.5957 33.2079 41.5818C33.209 41.5771 33.21 41.5725 33.2111 41.5679C33.2154 41.5499 33.22 41.5319 33.2248 41.5141L33.2269 41.5069C33.2309 41.4922 33.2351 41.4776 33.2393 41.4631C33.2408 41.4581 33.2425 41.4532 33.2438 41.4482C33.248 41.4346 33.2523 41.4211 33.2567 41.4076C33.2581 41.403 33.2596 41.3984 33.2612 41.3938C33.2668 41.3773 33.2726 41.3608 33.2785 41.3444C33.2803 41.34 33.2817 41.3356 33.2834 41.3313C33.2883 41.3181 33.2934 41.305 33.2986 41.292C33.3 41.2888 33.301 41.2854 33.3025 41.2821L33.3046 41.2764C33.3111 41.2605 33.3177 41.2447 33.3246 41.229C33.3263 41.2254 33.3278 41.2218 33.3294 41.2182C33.3352 41.2053 33.3411 41.1925 33.3471 41.1797C33.3496 41.1745 33.3521 41.1693 33.3546 41.1641C33.3602 41.1525 33.3659 41.141 33.3718 41.1295C33.3742 41.1247 33.3767 41.1199 33.3791 41.1152C33.3871 41.0998 33.3953 41.0845 33.4037 41.0694C33.4062 41.0651 33.4086 41.0608 33.411 41.0566C33.4173 41.0454 33.4238 41.0342 33.4304 41.0231C33.4332 41.0181 33.4364 41.0131 33.4394 41.0081C33.4481 40.9937 33.457 40.9795 33.4662 40.9654C33.469 40.9612 33.4717 40.957 33.4744 40.9528C33.4816 40.9418 33.489 40.931 33.4965 40.9202C33.5004 40.9146 33.5043 40.909 33.5083 40.9034C33.515 40.8939 33.5218 40.8845 33.5287 40.8751C33.5324 40.8701 33.5362 40.8651 33.5399 40.8601C33.5497 40.8472 33.5597 40.8344 33.5698 40.8217C33.5744 40.816 33.579 40.8103 33.5837 40.8047C33.5903 40.7966 33.597 40.7887 33.6037 40.7808C33.6087 40.7749 33.6138 40.7691 33.6188 40.7633C33.6277 40.7532 33.6367 40.7432 33.6458 40.7334C33.6521 40.7265 33.6585 40.7197 33.6649 40.7129C33.6722 40.7053 33.6796 40.6977 33.687 40.6902C33.693 40.6841 33.6992 40.678 33.7053 40.672C33.7123 40.6651 33.7193 40.6584 33.7264 40.6517C33.7289 40.6496 33.7311 40.6473 33.7334 40.6451C33.737 40.5166 33.7409 40.3882 33.7448 40.2598C33.7641 39.6363 33.7888 39.0129 33.8173 38.3897C33.2301 38.3256 32.6171 38.1937 32.0581 38.0543C31.5468 37.9268 31.0124 37.7748 30.5121 37.5835C30.3197 37.9931 30.1161 38.3978 29.8998 38.7953C29.6868 39.1871 29.4609 39.5792 29.2006 39.9428C29.2603 40.4948 29.0485 41.0866 28.6499 41.4698C28.3436 41.7642 27.9342 42.0626 27.5225 42.1801C27.2266 42.2646 26.9134 42.2476 26.631 42.1236C26.1239 41.901 25.8406 41.4017 25.7953 40.8644C25.7585 40.4286 25.8734 39.9847 26.0984 39.6113C26.2573 39.3476 26.4956 39.1172 26.7511 38.9472C26.9937 38.7857 27.2714 38.6677 27.561 38.6274C27.7429 38.3611 27.903 38.0745 28.0562 37.7928C28.2534 37.4301 28.4392 37.0607 28.6147 36.6867C28.4384 36.5895 28.2641 36.4887 28.0921 36.3839L27.2352 35.8619L27.7183 34.9825C27.7974 34.8384 27.8804 34.6964 27.9668 34.5565L27.8601 34.4878L28.0814 33.7346C28.1709 33.4295 28.294 33.1292 28.4268 32.8404C28.5652 32.5394 28.7221 32.2456 28.9 31.9656C28.8305 31.8907 28.7633 31.8139 28.6984 31.7351C27.6335 30.4418 27.3984 28.6637 27.7052 27.0545C27.4803 26.7764 27.3426 26.4388 27.3421 26.0742C27.3418 25.7238 27.4698 25.3944 27.6981 25.1298C27.9425 24.8468 28.2706 24.6942 28.6298 24.657C28.6828 24.5748 28.7382 24.4942 28.7958 24.4154C28.0247 24.3197 27.3681 23.9136 26.9287 23.2154C26.9241 23.2081 26.9195 23.2008 26.9149 23.1935C26.5923 24.0013 25.9285 24.5325 24.9976 24.6507C24.0943 24.7653 23.3213 24.3076 22.7186 23.6743C22.3321 23.2683 22.0136 22.7942 21.7454 22.2967C21.5702 22.6141 21.3436 22.904 21.0912 23.1657C20.5042 23.774 19.7847 24.2259 19.0122 24.5607C18.2055 24.9104 17.352 25.1306 16.4708 25.1579C15.5629 25.1861 14.6627 25.003 13.8927 24.5049C12.9988 23.9267 12.4762 22.9053 12.1437 21.9248C12.1036 21.8067 12.0658 21.6879 12.0301 21.5684C11.922 22.041 11.7891 22.5107 11.6087 22.9562C11.2967 23.7264 10.8175 24.4634 10.1065 24.919C9.55292 25.2736 8.93072 25.4102 8.2778 25.3627C7.35364 25.2956 6.59174 24.8533 6.11296 24.0542C5.96978 23.8152 5.86294 23.562 5.78578 23.3C5.37512 24.0436 4.6682 24.5535 3.59307 24.6292C2.77973 24.6864 2.04997 24.396 1.46512 23.8348C0.723557 23.1232 0.377021 22.1114 0.215927 21.1192C-0.0161754 19.6894 -0.0540165 18.2311 0.0681832 16.7887C0.186026 15.3977 0.453369 13.9891 0.993008 12.6964C1.28336 12.0009 1.72814 11.404 2.36408 10.9894C3.04187 10.5475 3.80838 10.4128 4.59685 10.593C5.46686 10.792 6.20512 11.2584 6.6196 12.0679C6.7397 12.3025 6.82497 12.5509 6.88234 12.8073C6.95339 12.6125 7.03873 12.4263 7.14104 12.2532C7.62499 11.4344 8.42217 11.0147 9.36787 11.0332C10.8705 11.0626 11.7345 12.2268 12.182 13.5357C12.1956 13.5755 12.2088 13.6153 12.2217 13.6553C12.4828 13.0038 12.8443 12.3922 13.3532 11.9123C14.1055 11.2031 15.0174 10.7898 16.0418 10.6642C16.9448 10.5534 17.8496 10.6682 18.7031 10.9795C19.4837 11.2642 20.1971 11.7053 20.7172 12.3625C20.8518 12.5326 20.97 12.7151 21.0646 12.9082C21.3177 12.4993 21.628 12.1287 21.9858 11.7969C22.8907 10.9579 23.9816 10.4606 25.1942 10.2579C26.4261 10.052 27.6344 10.1818 28.7741 10.7023C29.3018 10.9433 29.7705 11.2498 30.1798 11.6168C29.6896 10.8192 29.3262 9.94343 29.0674 9.02096C28.5847 7.3005 28.4991 5.5168 29.13 3.82115C29.8289 1.94234 31.2324 0.767955 33.1664 0.29177C35.1642 -0.200156 37.0972 0.0454363 38.6947 1.41286C40.0852 2.60299 40.797 4.24091 41.0711 6.0224C41.3486 7.82584 41.1566 9.59415 40.4025 11.2627C40.2957 11.499 40.1792 11.7279 40.0523 11.9483C40.8143 11.0864 41.7704 10.4732 42.9438 10.258C43.9305 10.0772 44.9242 10.1613 45.8646 10.5112C46.9005 10.8968 47.743 11.5553 48.3513 12.4797C48.6564 12.9434 48.8498 13.4597 48.9015 14.0137C48.9496 14.5283 48.8723 15.0351 48.6298 15.495C48.3857 15.9576 48.008 16.3105 47.5203 16.504C46.9913 16.7139 46.4281 16.6864 45.9077 16.4649C45.6686 16.3633 45.1398 16.1561 44.879 16.1772C44.858 16.2196 44.838 16.3208 44.8309 16.3552C44.7786 16.6095 44.7626 16.8753 44.8191 17.1304C44.8503 17.2714 44.9037 17.4185 45.0005 17.5284C45.0098 17.539 45.0345 17.5657 45.0509 17.5763C45.0645 17.57 45.0827 17.5577 45.0917 17.5515C45.4691 17.2942 45.8875 17.1139 46.3393 17.0395C46.8212 16.9601 47.3011 17.0141 47.7454 17.2205C48.059 17.3662 48.3197 17.5658 48.5303 17.8097C48.6058 17.4272 48.6977 17.0478 48.8031 16.6725C49.1301 15.5079 49.5915 14.3781 50.2242 13.3451C50.7927 12.4169 51.5449 11.5139 52.5471 11.0403C53.4814 10.5989 54.4771 10.4876 55.4896 10.6849C56.3869 10.8597 57.2042 11.245 57.9233 11.8078C58.5773 12.3198 59.1194 12.9603 59.4106 13.746C59.7326 14.6148 59.6614 15.5088 59.0229 16.2144C58.6393 16.6384 58.1293 16.8741 57.5615 16.9184C57.4634 16.9261 57.3646 16.9278 57.2656 16.9247C57.4681 17.3439 57.5163 17.8186 57.3933 18.2962C57.2868 18.7097 57.0835 19.0671 56.793 19.3483C57.0115 19.4472 57.2182 19.5709 57.4067 19.7239C57.777 20.0245 58.0313 20.3996 58.1535 20.83C58.4745 20.6082 58.8313 20.4348 59.1925 20.2959C59.1949 20.2646 59.1963 20.234 59.1972 20.212C59.2025 20.0793 59.1965 19.9454 59.1936 19.8127L59.1929 19.7801L59.1978 19.6581L59.1926 19.5312V19.5096C59.1926 19.4004 59.1936 19.2911 59.1966 19.1819C59.2026 18.5893 59.2435 17.9972 59.3197 17.4094C59.4982 16.0329 59.894 14.6753 60.6389 13.4941C61.2782 12.4803 62.1755 11.6125 63.4114 11.4475C64.7073 11.2746 65.8589 11.7991 66.7757 12.692C67.9014 13.7884 68.5957 15.3372 69.0571 16.8183C69.1308 17.0389 69.1948 17.2626 69.2498 17.4885C69.2999 17.6693 69.3412 17.8524 69.3828 18.0354C69.4284 18.2362 69.4696 18.4514 69.5363 18.6472C70.0055 18.7051 70.4725 18.819 70.902 19.0154C70.8722 18.4391 70.8947 17.8602 70.9598 17.2869C71.0932 16.1123 71.4004 14.9688 71.9 13.8962C72.3118 13.0123 72.8475 12.1429 73.5659 11.4748C74.127 10.953 74.7963 10.5583 75.5719 10.4879C76.2932 10.4223 76.9596 10.6442 77.4876 11.142C77.9936 11.6191 78.2686 12.2425 78.3549 12.9267C78.4164 13.4138 78.3845 13.9117 78.3064 14.395C78.2756 14.5854 78.2358 14.774 78.1971 14.9628L78.1559 15.1924C78.1422 15.2689 78.1279 15.3453 78.1152 15.422C78.11 15.4531 78.1024 15.5018 78.0963 15.5525C78.7708 15.775 79.3835 16.1042 79.9046 16.5536C79.892 16.5098 79.8792 16.4661 79.8664 16.4228L79.7629 16.095L79.6614 15.7647C79.5865 15.5302 79.5142 15.2946 79.4558 15.0553C79.1783 14.0568 79.0201 12.8783 79.5125 11.9201C79.7737 11.4119 80.1883 11.0341 80.7006 10.7871C81.1952 10.5486 81.7442 10.4547 82.2906 10.4949C82.8808 10.5382 83.4325 10.7299 83.9263 11.0554C84.4835 11.4227 84.9126 11.924 85.2268 12.5101C85.7593 13.5036 85.93 14.7529 85.9823 15.867C86.0434 17.1667 85.945 18.4679 85.7056 19.7465C85.4914 20.8907 85.1529 22.1075 84.5352 23.1033C84.1801 23.6756 83.6899 24.2102 83.0567 24.472C82.6231 24.6514 82.1662 24.6829 81.7096 24.5778C81.0553 24.4272 80.5443 24.0097 80.3152 23.3721C80.3121 23.3629 80.3087 23.3538 80.3056 23.3446C80.1895 23.4728 80.0667 23.595 79.9378 23.711C78.975 24.5776 77.793 24.9637 76.5091 24.9768C75.1923 24.9902 73.9494 24.6389 72.9385 23.7706C72.6805 23.549 72.4483 23.3029 72.2415 23.0359C71.6683 24.0535 70.5227 24.6317 69.4424 24.9859C68.1754 25.4014 66.7984 25.611 65.4788 25.7845C63.876 25.9951 62.1942 26.1028 60.5863 25.8944C59.3124 25.7293 57.7812 25.3058 57.1987 24.0291C57.1521 23.927 57.1109 23.8226 57.076 23.7163C56.8727 23.8754 56.653 24.014 56.4256 24.1351C55.6799 24.5324 54.855 24.7389 54.0173 24.8186C53.1417 24.9019 52.2619 24.8473 51.4152 24.6007C50.5391 24.3455 49.7468 23.8978 49.1658 23.1827C48.9297 22.8921 48.7545 22.5636 48.626 22.2162C48.4047 22.5827 48.1293 22.9156 47.812 23.2131C46.767 24.1928 45.4616 24.6275 44.0452 24.6656C43.183 24.6888 42.3285 24.5411 41.5385 24.1895C40.756 23.8413 40.0941 23.3195 39.5552 22.6553C38.781 21.701 38.3547 20.5952 38.1706 19.431C38.119 19.5082 38.0578 19.5815 37.9867 19.6497C38.0505 19.8734 38.1023 20.1015 38.1419 20.3298C38.3153 21.3296 38.2561 22.36 38.0109 23.3425C38.8148 23.9885 39.4223 24.8703 39.8062 25.8249C40.1347 25.9187 40.4149 26.1125 40.606 26.4109C40.6362 26.458 40.6636 26.5065 40.688 26.5561C40.7582 26.4803 40.838 26.4134 40.926 26.357L40.9427 26.3463L40.9599 26.3362C41.1488 26.2251 41.362 26.1665 41.5813 26.1665C41.8052 26.1665 42.0241 26.2266 42.215 26.3439L42.2239 26.3494L42.2296 26.353C42.3004 26.3977 42.3659 26.4491 42.4255 26.5065C42.6533 26.2862 42.9536 26.1644 43.2715 26.1644H44.3097C44.4607 26.1644 44.6094 26.192 44.7489 26.246C44.8887 26.1919 45.0376 26.1643 45.1888 26.1643H46.2271C46.4673 26.1643 46.6973 26.2341 46.8937 26.3634C47.1512 26.2311 47.4347 26.1644 47.7296 26.1644C48.0061 26.1644 48.2737 26.223 48.5193 26.3403C48.7079 26.2254 48.9247 26.1643 49.15 26.1643C49.3311 26.1643 49.5078 26.204 49.6691 26.2805C49.7593 26.238 49.8548 26.2067 49.9534 26.1874C50.2652 26.1263 50.5911 26.1906 50.8569 26.3646C50.8852 26.3832 50.9127 26.4029 50.9393 26.4236C50.9713 26.3985 51.0046 26.375 51.0391 26.3531L51.0485 26.3471L51.0579 26.3413C51.2489 26.225 51.4676 26.164 51.6912 26.164C51.913 26.164 52.1284 26.2242 52.3186 26.3379L52.3307 26.3451L52.3425 26.3527C52.4259 26.4056 52.5018 26.4681 52.5692 26.5386C52.8615 26.2949 53.2208 26.164 53.6079 26.164H54.2317C54.558 26.164 54.8658 26.2929 55.0956 26.5243C55.2952 26.7252 55.4169 26.9847 55.4438 27.2634L55.4433 27.2632ZM39.2452 13.0688C38.798 13.5658 38.2698 13.9847 37.6512 14.3018C37.965 15.4135 38.0876 16.4767 37.8413 17.614C37.9226 17.6788 37.9954 17.7505 38.0591 17.8276C38.0612 17.649 38.0673 17.47 38.0775 17.2909C38.1622 15.8088 38.4991 14.3482 39.2452 13.0688ZM31.3599 13.1232C31.4202 13.2341 31.4775 13.3478 31.5319 13.464C32.0107 14.4874 32.2869 15.5953 32.4278 16.7134C32.5674 17.8204 32.5712 18.9391 32.4275 20.0458C32.4182 20.1174 32.4083 20.1892 32.3977 20.2611C32.582 19.9943 32.787 19.7399 33.0135 19.5002C33.3222 19.1735 33.6675 18.8787 34.0397 18.6258C34.0115 18.4146 34.0361 18.2001 34.1144 17.9968C34.2922 17.5346 34.7122 17.2019 35.1872 17.0896C35.19 17.0752 35.1926 17.0607 35.1952 17.0463C34.9622 16.9963 34.744 16.8822 34.5558 16.7301C34.2203 16.4589 33.8859 16.1863 33.5541 15.9105C33.1574 15.5807 32.8391 15.1903 32.8755 14.6422C32.8828 14.532 32.9038 14.4265 32.9383 14.326C32.496 14.0885 32.0873 13.7912 31.7125 13.4571C31.5909 13.3487 31.4733 13.2374 31.3599 13.1232ZM24.0599 26.5873C24.0613 26.5858 24.0627 26.5844 24.0642 26.5829C24.2972 26.3488 24.6081 26.2188 24.9385 26.2188H26.0771C26.4055 26.2188 26.7146 26.3476 26.9474 26.5789C27.1813 26.8114 27.3106 27.1229 27.3106 27.4527C27.3106 27.6984 27.239 27.9346 27.1045 28.1359C27.2387 28.337 27.3106 28.5731 27.3106 28.8185C27.3106 29.1507 27.1803 29.4645 26.9433 29.6975C26.7108 29.9261 26.4032 30.0524 26.0771 30.0524H24.9385C24.6104 30.0524 24.3011 29.9249 24.0683 29.6936C24.0651 29.6904 24.0621 29.6874 24.059 29.6843C24.044 29.6909 24.0289 29.6973 24.0138 29.7034C23.7824 29.9285 23.4769 30.0524 23.1535 30.0524C22.8471 30.0524 22.5568 29.9406 22.3306 29.7372C22.2498 29.8095 22.1594 29.8711 22.0614 29.9204C21.8893 30.0072 21.7003 30.0525 21.5075 30.0525C21.2824 30.0525 21.0626 29.9911 20.8699 29.8749C20.8542 29.8655 20.8387 29.8556 20.8234 29.8455C20.7321 29.906 20.6326 29.9543 20.5273 29.9891C20.2412 30.0836 19.9353 30.0712 19.6599 29.9546C19.5077 30.0191 19.3438 30.0525 19.1767 30.0525C18.9761 30.0525 18.7812 30.0054 18.6064 29.9144C18.4322 30.0051 18.238 30.0525 18.0382 30.0525C17.7079 30.0525 17.3962 29.9233 17.1633 29.689C16.932 29.4563 16.805 29.1466 16.805 28.8186V27.4528C16.805 27.1262 16.9319 26.8175 17.1616 26.5853C17.3945 26.3498 17.7069 26.2189 18.0382 26.2189C18.2383 26.2189 18.4328 26.2668 18.6072 26.358C18.7117 26.3037 18.8239 26.2647 18.9405 26.2421C19.2575 26.1804 19.5885 26.2465 19.8579 26.4245C19.9081 26.4577 19.9556 26.4943 20.0001 26.5339C20.0495 26.4895 20.1026 26.449 20.1591 26.4126L20.1733 26.4034L20.1878 26.3946C20.3802 26.279 20.599 26.2189 20.8234 26.2189C21.0498 26.2189 21.2707 26.2796 21.4641 26.3975L21.4754 26.4045L21.4825 26.409C21.6447 26.5112 21.7791 26.649 21.8777 26.8118C22.0048 26.7102 22.1454 26.6274 22.2969 26.5665C22.5273 26.343 22.8314 26.2188 23.1535 26.2188C23.4763 26.2188 23.7811 26.3429 24.0118 26.567C24.0279 26.5735 24.0439 26.5803 24.0599 26.5873ZM36.0496 20.5627C35.7311 20.6475 35.3923 20.6061 35.0943 20.4497C34.4972 20.8888 34.0483 21.4687 33.7351 22.1329C34.4994 22.1181 35.3401 22.1959 36.0688 22.3821C36.17 21.7773 36.1708 21.1633 36.0496 20.5627ZM19.6618 16.048C19.9846 16.3829 20.1748 16.8167 20.2056 17.3139C20.2319 17.739 20.1487 18.1421 19.9595 18.4994C20.135 18.5189 20.3087 18.5532 20.4785 18.6047C20.3077 17.6703 20.2428 16.7241 20.2844 15.7748C20.1755 15.8425 20.0601 15.9014 19.9394 15.9513C19.8491 15.9886 19.7563 16.0206 19.6618 16.048Z" fill="white"/>
<path fill-rule="evenodd" clip-rule="evenodd" d="M35.6135 38.0541C35.5771 38.8072 35.5458 39.5608 35.5225 40.3143C35.5167 40.5015 35.511 40.6892 35.5066 40.8768C35.5097 40.8803 35.5128 40.8836 35.516 40.887C35.5301 40.9025 35.5442 40.9189 35.5573 40.9353C35.5682 40.9489 35.5791 40.963 35.5893 40.9771C35.6008 40.993 35.612 41.0093 35.6227 41.0259C35.6326 41.0412 35.6423 41.0574 35.6514 41.0732C35.8123 41.3533 35.8866 41.7161 35.8998 42.0365C35.9211 42.555 35.7865 43.1331 35.3223 43.4328C34.9607 43.6663 34.487 43.6872 34.1116 43.4718C33.6281 43.1944 33.4659 42.6544 33.4659 42.1282C33.4659 42.1116 33.4661 42.095 33.4666 42.0783C33.4667 42.0737 33.4668 42.069 33.4669 42.0644C33.4673 42.0514 33.4676 42.0384 33.4683 42.026C33.4685 42.022 33.4686 42.018 33.4687 42.0141C33.4694 41.9979 33.4704 41.9817 33.4715 41.9656C33.4718 41.9618 33.4722 41.958 33.4722 41.955C33.4732 41.942 33.4743 41.929 33.4757 41.9159C33.4761 41.9116 33.4764 41.9072 33.4771 41.9029C33.4789 41.8877 33.4803 41.8725 33.4822 41.8573L33.4829 41.851L33.4833 41.8486C33.4851 41.835 33.4869 41.8216 33.489 41.8081C33.4897 41.8037 33.4904 41.7994 33.4911 41.7951C33.4932 41.7827 33.4952 41.7703 33.4974 41.758C33.4981 41.7544 33.4984 41.7508 33.4991 41.7473C33.5019 41.732 33.5049 41.7166 33.5081 41.7013C33.5088 41.6976 33.5099 41.6938 33.5102 41.6911C33.5127 41.6788 33.5156 41.6666 33.5184 41.6545C33.5194 41.6503 33.5205 41.6463 33.5212 41.6422C33.5248 41.6271 33.5287 41.6122 33.5326 41.5974L33.5337 41.5934L33.5344 41.5905C33.5379 41.5779 33.5415 41.5654 33.5451 41.5529C33.5465 41.5487 33.5476 41.5446 33.5489 41.5404C33.5524 41.5292 33.5559 41.5179 33.5596 41.5067C33.5607 41.5031 33.5621 41.4993 33.5632 41.4957C33.568 41.4816 33.5729 41.4675 33.578 41.4535C33.5794 41.4496 33.5808 41.4456 33.5822 41.4423C33.5861 41.4316 33.5902 41.4208 33.5946 41.4101C33.5963 41.4059 33.5977 41.4017 33.5996 41.3974C33.6051 41.3839 33.6108 41.3704 33.6166 41.357C33.618 41.3541 33.6191 41.3512 33.6205 41.3483C33.6253 41.3375 33.6303 41.3268 33.6353 41.3161C33.6374 41.3118 33.6394 41.3075 33.6415 41.3032C33.6461 41.2936 33.6509 41.2839 33.6557 41.2745C33.6578 41.2705 33.6598 41.2666 33.6618 41.2626C33.6684 41.2499 33.6751 41.2374 33.682 41.2249C33.6842 41.221 33.6864 41.2172 33.6883 41.2139C33.6935 41.2046 33.699 41.1953 33.7044 41.1861C33.7069 41.1818 33.7095 41.1776 33.7121 41.1734C33.7191 41.1618 33.7263 41.1502 33.7338 41.1388C33.7359 41.1353 33.7383 41.132 33.7405 41.1285C33.7465 41.1195 33.7525 41.1106 33.7587 41.1017C33.7618 41.0972 33.7649 41.0927 33.768 41.0883C33.7736 41.0804 33.7793 41.0725 33.7851 41.0647C33.7879 41.0607 33.791 41.0567 33.794 41.0527C33.8021 41.042 33.8104 41.0315 33.8188 41.021C33.8223 41.0165 33.8259 41.0122 33.8294 41.0079C33.8351 41.001 33.8408 40.9942 33.8465 40.9875C33.8504 40.9829 33.8544 40.9784 33.8583 40.9739C33.8655 40.9657 33.8727 40.9577 33.8801 40.9497C33.8852 40.9441 33.8905 40.9385 33.8958 40.933C33.9017 40.9268 33.9077 40.9206 33.9137 40.9145C33.9186 40.9096 33.9235 40.9047 33.9285 40.8998C33.934 40.8943 33.9397 40.8889 33.9452 40.8838C33.9499 40.8793 33.9546 40.8748 33.9594 40.8704C33.9685 40.8621 33.9777 40.8539 33.9871 40.8458C33.9927 40.8409 33.9983 40.8362 34.0041 40.8314C34.0091 40.8271 34.0143 40.8228 34.0194 40.8187C34.0254 40.8139 34.0314 40.8091 34.0374 40.8044C34.0411 40.8015 34.0448 40.7987 34.0484 40.7959C34.0529 40.6202 34.0582 40.4446 34.0636 40.2694C34.0859 39.5454 34.1157 38.8217 34.15 38.098C33.1411 38.0314 31.3566 37.6034 30.3488 37.1728C30.1217 37.6716 29.8768 38.1667 29.6181 38.6423C29.403 39.038 29.15 39.4777 28.8641 39.86C28.9611 40.347 28.7804 40.8998 28.4275 41.2389C28.1609 41.4952 27.7902 41.7707 27.4339 41.8724C27.2095 41.9365 26.9729 41.9247 26.7587 41.8306C26.3598 41.6555 26.1484 41.2558 26.1131 40.8372C26.0819 40.4685 26.1812 40.0916 26.3714 39.7761C26.5055 39.5536 26.712 39.3564 26.9274 39.213C27.1679 39.053 27.4498 38.9418 27.7362 38.9324C27.9628 38.6205 28.171 38.2492 28.3362 37.9453C28.582 37.4933 28.8147 37.022 29.0302 36.5475C28.7682 36.4097 28.5102 36.2644 28.2576 36.1106L27.6618 35.7476L27.9977 35.1361C28.1233 34.9075 28.2608 34.6808 28.4073 34.46L28.2334 34.3481L28.3873 33.8244C28.4708 33.5401 28.5932 33.2419 28.7165 32.9737C28.8823 32.6131 29.0787 32.2573 29.3083 31.9272C29.1801 31.8018 29.0582 31.6699 28.9444 31.5316C27.9106 30.2762 27.7149 28.5213 28.0494 26.9616C27.8172 26.7237 27.6615 26.4157 27.661 26.0735C27.6607 25.8 27.7611 25.5448 27.9393 25.3384C28.1691 25.0721 28.4862 24.9662 28.8123 24.9673C29.0043 24.6461 29.229 24.3563 29.4814 24.0974C29.4296 24.1043 29.3769 24.1094 29.3232 24.1125C28.4289 24.1646 27.6783 23.8073 27.1984 23.0449C27.037 22.7882 26.9112 22.4949 26.814 22.18C26.7998 22.3378 26.7786 22.4885 26.7494 22.6299C26.5525 23.5825 25.9306 24.2096 24.9565 24.3332C24.1589 24.4344 23.4788 24.0099 22.9494 23.4536C22.4262 22.9039 22.0293 22.2117 21.7175 21.5156C21.5775 22.0569 21.2547 22.5346 20.8602 22.9434C20.3026 23.5213 19.6179 23.949 18.8842 24.2671C18.1142 24.6008 17.3012 24.8119 16.4601 24.838C15.6157 24.8643 14.7822 24.6998 14.0655 24.2362C13.2379 23.7008 12.7528 22.7276 12.4456 21.8218C12.2424 21.2228 12.0985 20.6043 12.002 19.9782C11.9549 20.2837 11.9029 20.5881 11.8444 20.8905C11.7192 21.5384 11.5597 22.2232 11.3115 22.8358C10.7752 24.1597 9.81246 25.1535 8.30015 25.0435C7.47883 24.9839 6.81109 24.5984 6.38638 23.8895C5.91005 23.0945 5.87839 22.1109 5.98819 21.2149C6.0065 21.0657 6.03134 20.7491 5.9831 20.5479C5.92987 20.774 5.91961 21.1295 5.91996 21.2605C5.924 22.8364 5.29234 24.1888 3.56981 24.31C2.84603 24.3609 2.20555 24.1026 1.68566 23.6038C0.997365 22.9433 0.679955 21.9872 0.530701 21.0677C0.30271 19.6634 0.26589 18.2321 0.385946 16.8154C0.500697 15.4604 0.761397 14.0787 1.28719 12.8193C1.55264 12.1834 1.95588 11.6363 2.53783 11.2569C3.14313 10.8623 3.8205 10.7434 4.52475 10.9044C5.30309 11.0824 5.96395 11.4903 6.33417 12.2133C6.75986 13.0447 6.69915 14.0941 6.53914 14.9863C6.51848 15.1015 6.50124 15.2809 6.56082 15.3893C6.57825 15.4209 6.61036 15.4229 6.64518 15.4283C6.65973 15.4304 6.70238 15.4356 6.71717 15.4304C6.72097 15.4287 6.72683 15.423 6.72986 15.4202L6.73495 15.4153L6.74026 15.4105C6.83484 15.324 6.85582 15.0808 6.85912 14.9653C6.88252 14.1422 6.98856 13.1378 7.41545 12.4157C7.84051 11.6965 8.52867 11.3364 9.36077 11.3527C10.7172 11.3792 11.4759 12.461 11.8787 13.639C12.012 14.029 12.1107 14.4315 12.1805 14.8406C12.4204 13.8643 12.8281 12.8458 13.5717 12.1448C14.2738 11.4828 15.1218 11.0988 16.0799 10.9813C16.937 10.8761 17.7814 10.9837 18.5927 11.2796C19.3168 11.5437 19.9827 11.9505 20.4656 12.5607C20.759 12.9313 20.9462 13.341 20.9832 13.7687C21.2481 13.1181 21.6567 12.5372 22.2024 12.0311C23.0607 11.2353 24.0935 10.7657 25.2461 10.573C26.4166 10.3774 27.5596 10.4992 28.6404 10.9929C29.8252 11.534 30.6905 12.4211 31.2419 13.5995C31.7065 14.5923 31.9735 15.6687 32.1103 16.7534C32.2465 17.8345 32.2504 18.9237 32.1099 20.0046C31.9907 20.9222 31.7629 21.8868 31.3015 22.6969C31.2457 22.795 31.1863 22.8906 31.1233 22.9827C31.2876 22.9118 31.4563 22.848 31.6289 22.7915C31.9091 21.6476 32.4271 20.5857 33.2454 19.7197C33.5852 19.3601 33.976 19.0374 34.4004 18.7718C34.1657 18.0809 34.7448 17.4248 35.4493 17.3713C35.5065 17.1607 35.5384 16.9565 35.5508 16.749C35.2985 16.7774 35.019 16.6937 34.7563 16.4814C34.4219 16.2111 34.0886 15.9394 33.7579 15.6645C33.4458 15.4051 33.1647 15.1041 33.194 14.6633C33.2065 14.4734 33.2721 14.3175 33.37 14.1842C32.8486 13.9447 32.3667 13.6124 31.9247 13.2184C30.6385 12.0721 29.836 10.5798 29.3744 8.93434C28.9102 7.28004 28.822 5.56363 29.4288 3.93241C30.09 2.15486 31.4087 1.05341 33.242 0.601998C35.1446 0.133542 36.9716 0.359321 38.486 1.65552C39.8166 2.79457 40.4917 4.36503 40.7542 6.07076C41.0227 7.81574 40.8383 9.52001 40.1103 11.1308C39.4987 12.4841 38.575 13.5425 37.2674 14.1315C37.6571 15.4047 37.7922 16.5351 37.479 17.7551C38.1457 18.1281 38.3132 19.0634 37.6178 19.5374C37.71 19.8234 37.7797 20.117 37.826 20.3842C38.0046 21.4139 37.9255 22.4648 37.6466 23.466C38.5308 24.1165 39.185 25.0689 39.5686 26.0987C39.8738 26.1496 40.153 26.2975 40.3359 26.5831C40.4772 26.8039 40.5402 27.0607 40.5077 27.3216C40.4621 27.6886 40.2404 27.9931 39.9474 28.2043C39.9673 29.8454 39.4204 31.4417 38.211 32.6086C37.9793 32.8321 37.7249 33.0262 37.4526 33.1918C37.7062 34.0613 37.7738 34.986 37.8473 35.8862L37.424 36.0637L37.5135 37.6481C36.8627 37.8293 36.2952 37.9783 35.6135 38.0541ZM36.2693 20.115C35.8915 20.3716 35.4328 20.3306 35.0856 20.066C34.2093 20.6454 33.6038 21.4928 33.2465 22.4761C34.185 22.4025 35.4064 22.4921 36.3148 22.7853C36.5173 21.8993 36.5209 20.9899 36.2693 20.115ZM20.6687 14.972C20.4626 15.2795 20.1707 15.5095 19.8173 15.6557C19.5194 15.7788 19.1793 15.8379 18.8536 15.8692C18.9021 15.891 18.9502 15.915 18.9978 15.9411C19.5326 16.235 19.8488 16.7233 19.8866 17.3335C19.9217 17.9016 19.7336 18.4118 19.3354 18.8075C19.7495 18.7786 20.1619 18.8177 20.545 18.9652C20.6816 19.0178 20.8063 19.0808 20.9195 19.1531C20.6152 17.8559 20.519 16.5253 20.6469 15.1658C20.653 15.1007 20.6603 15.0361 20.6687 14.972ZM26.3305 17.2415C26.3172 17.641 26.4123 18.2298 26.449 18.4225C26.4715 18.541 26.4951 18.6661 26.519 18.7967C26.528 18.2849 26.4912 17.7204 26.3305 17.2415ZM71.2716 19.5945C71.1817 18.8418 71.1912 18.0784 71.277 17.3227C71.4068 16.1811 71.7039 15.0733 72.1895 14.0309C72.5825 13.1871 73.097 12.3467 73.7832 11.7086C74.2907 11.2367 74.8974 10.8698 75.6005 10.806C76.2311 10.7486 76.8063 10.9392 77.2678 11.3743C77.7193 11.8 77.9602 12.3558 78.0373 12.9664C78.0948 13.4219 78.0633 13.8919 77.9904 14.3437C77.9601 14.5302 77.9207 14.7169 77.8827 14.9022L77.8408 15.1356C77.8268 15.2134 77.8123 15.2912 77.7994 15.3691C77.7846 15.4572 77.7545 15.6743 77.7729 15.7779C77.7989 15.7928 77.8417 15.8072 77.8625 15.8136C78.9319 16.1391 79.8328 16.7321 80.4553 17.6489C80.4501 17.6018 80.4448 17.5547 80.4393 17.5076C80.3934 17.1166 80.2834 16.706 80.1717 16.3289L80.0681 16.0007L79.9656 15.6671C79.8927 15.439 79.8214 15.207 79.7649 14.9743C79.5104 14.0609 79.3448 12.9449 79.7964 12.0659C80.0256 11.6201 80.389 11.2918 80.839 11.0747C81.2857 10.8594 81.7728 10.7771 82.2668 10.8134C82.8025 10.8528 83.3012 11.0262 83.7499 11.322C84.2627 11.66 84.6553 12.1212 84.9445 12.6608C85.4512 13.6062 85.6128 14.8237 85.6626 15.8816C85.7225 17.1578 85.6259 18.4319 85.3909 19.6873C85.1853 20.7853 84.8565 21.9779 84.2631 22.9345C83.7151 23.8177 82.8778 24.5184 81.7809 24.2659C81.2321 24.1396 80.8077 23.7981 80.6157 23.2637C80.5434 23.0622 80.5054 22.828 80.487 22.5899C80.2768 22.9095 80.022 23.2044 79.7234 23.4731C78.8202 24.2861 77.7134 24.6444 76.5054 24.6567C75.2657 24.6694 74.0988 24.3459 73.1464 23.5278C72.7563 23.1927 72.4369 22.8052 72.1775 22.3805C72.1606 22.4325 72.1424 22.4844 72.1227 22.5363C71.6833 23.6967 70.4504 24.3185 69.3423 24.6818C68.1196 25.0828 66.7102 25.2998 65.4367 25.4671C63.8725 25.6727 62.1967 25.7804 60.627 25.577C59.4795 25.4283 58.0176 25.0545 57.4891 23.896C57.3696 23.6343 57.2947 23.367 57.2717 23.0999C56.9947 23.4072 56.6476 23.654 56.2749 23.8526C55.5664 24.23 54.7823 24.4244 53.9866 24.5C53.1508 24.5795 52.3125 24.5289 51.5042 24.2934C50.6913 24.0566 49.953 23.6449 49.4136 22.9807C49.0227 22.4997 48.8142 21.8962 48.7102 21.2766C48.4975 21.9149 48.118 22.4871 47.5929 22.9796C46.6068 23.9039 45.3762 24.3096 44.0362 24.3457C43.2187 24.3676 42.4168 24.2303 41.6681 23.8971C40.9309 23.569 40.3105 23.079 39.8031 22.4535C38.6154 20.9896 38.2917 19.1493 38.3968 17.309C38.4909 15.6615 38.9037 14.0387 39.8761 12.6822C40.6499 11.6027 41.6745 10.8154 43.0011 10.5722C43.9349 10.401 44.8629 10.4795 45.7528 10.8106C46.7253 11.1726 47.5129 11.7875 48.0838 12.6551C48.3603 13.0753 48.5359 13.5411 48.5828 14.0431C48.6252 14.4959 48.56 14.9409 48.3466 15.3454C48.1378 15.7411 47.8183 16.0412 47.402 16.2065C46.9519 16.385 46.4759 16.3591 46.0324 16.1704C45.734 16.0435 45.1726 15.8268 44.8409 15.8593C44.6092 15.8819 44.5596 16.0845 44.5173 16.2905C44.4557 16.5902 44.44 16.8989 44.5065 17.1992C44.5499 17.3953 44.6262 17.5872 44.7602 17.7394C44.8262 17.8144 44.9039 17.8788 45.0051 17.8947C45.1054 17.9105 45.1894 17.8713 45.2714 17.8154C45.6105 17.5841 45.9849 17.4215 46.3909 17.3546C46.8098 17.2856 47.2246 17.331 47.6103 17.5102C48.1719 17.7711 48.5123 18.2178 48.7028 18.7427C48.7865 18.0719 48.9284 17.4074 49.1105 16.7586C49.4296 15.6223 49.8791 14.5198 50.4965 13.5118C51.0299 12.6408 51.7415 11.7741 52.6833 11.3291C53.5556 10.9169 54.4808 10.8138 55.428 10.9984C56.2759 11.1636 57.0456 11.5269 57.7258 12.0593C58.3325 12.5342 58.8401 13.1274 59.1104 13.8567C59.3913 14.6147 59.3419 15.3846 58.7855 15.9995C58.4571 16.3626 58.0231 16.5614 57.5362 16.5994C57.2148 16.6245 56.8732 16.5759 56.5537 16.5047C56.5931 16.5405 56.6314 16.5782 56.6686 16.6177C57.0844 17.0604 57.235 17.6269 57.0833 18.2161C56.9412 18.7681 56.605 19.1945 56.1034 19.448C56.5062 19.5484 56.8861 19.7131 57.2048 19.9718C57.6941 20.3689 57.9154 20.8818 57.9168 21.4383C58.3051 21.0505 58.8144 20.7818 59.3234 20.5877C59.3598 20.5738 59.4424 20.5386 59.4775 20.5079C59.504 20.4372 59.5137 20.2905 59.5163 20.2244C59.5218 20.0874 59.5156 19.9425 59.5128 19.8052L59.5125 19.7826L59.5175 19.6576L59.512 19.5243V19.5093C59.512 19.4021 59.5131 19.2948 59.5159 19.1876C59.5217 18.6067 59.5617 18.0263 59.6364 17.4502C59.809 16.1202 60.1892 14.8058 60.909 13.6643C61.4953 12.7346 62.3171 11.9158 63.4534 11.7641C64.6511 11.6043 65.7028 12.0933 66.5523 12.9207C67.6372 13.9774 68.3086 15.4905 68.7525 16.9162C68.8243 17.1309 68.8866 17.3487 68.94 17.5687C68.9893 17.746 69.03 17.9265 69.0707 18.1059C69.1189 18.318 69.1725 18.5821 69.2461 18.7863L69.2501 18.7975L69.2537 18.8088C69.2633 18.8385 69.2831 18.8951 69.303 18.9277C69.3446 18.9443 69.4195 18.955 69.456 18.9592C70.106 19.0348 70.7465 19.2208 71.2716 19.5945ZM64.4954 19.8386C64.516 19.8361 64.5344 19.8338 64.5485 19.8319C64.557 19.8305 64.5667 19.8294 64.5772 19.8276C64.5604 19.781 64.541 19.7351 64.5197 19.6904C64.5108 19.7363 64.5018 19.7883 64.4954 19.8386Z" fill="#040613"/>
<path fill-rule="evenodd" clip-rule="evenodd" d="M46.351 18.8826C46.4998 18.8044 46.6475 18.7548 46.7932 18.7344C46.6451 18.691 46.4829 18.7022 46.3056 18.7671C46.2406 18.7867 46.1637 18.8199 46.0745 18.8667L45.9753 18.9306L45.8761 18.9941C45.6007 19.1578 45.3146 19.2601 45.0174 19.3009C45.1651 19.344 45.3269 19.3475 45.5027 19.3113C45.6484 19.2848 45.8023 19.224 45.9637 19.1293L46.0629 19.0656L46.1622 19.0017C46.2345 18.9483 46.2975 18.9083 46.351 18.8826ZM41.69 12.8657C42.0199 12.5551 42.3979 12.3109 42.8244 12.1324C43.2147 11.9875 43.6615 11.9087 44.1653 11.8966C43.9588 11.8679 43.7273 11.8633 43.472 11.8833C43.2512 11.8998 43.0202 11.9444 42.779 12.0171C42.3426 12.1659 41.9416 12.4088 41.5751 12.7466C41.2275 13.068 40.9402 13.4329 40.7149 13.842C40.483 14.257 40.3107 14.6896 40.1984 15.1399C40.3934 14.6596 40.6018 14.2493 40.8236 13.9094C41.0841 13.5021 41.3725 13.1541 41.69 12.8657ZM48.1748 19.9062C48.211 20.8914 47.8502 21.7381 47.0928 22.4464C46.2983 23.1931 45.2731 23.5827 44.0165 23.615C43.2751 23.6364 42.5914 23.5077 41.9653 23.2293C41.3393 22.9505 40.8079 22.5387 40.3708 21.993C39.4305 20.841 39.0156 19.2936 39.1267 17.3509C39.2244 15.6393 39.6721 14.2251 40.4703 13.1083C41.2051 12.0863 42.0927 11.481 43.1328 11.2915C43.9449 11.1415 44.7337 11.2095 45.4977 11.496C46.3302 11.8037 46.9885 12.3243 47.4731 13.0572C47.6961 13.3995 47.8237 13.7509 47.8549 14.1112C47.8884 14.4427 47.8364 14.7407 47.6999 15.0045C47.5642 15.2568 47.375 15.4309 47.1323 15.527C46.8778 15.6282 46.6067 15.6186 46.3186 15.4979C45.6639 15.2175 45.1474 15.0956 44.7697 15.1318C44.2522 15.1833 43.9292 15.5205 43.8011 16.1435C43.7131 16.5723 43.7103 16.9768 43.7926 17.3574C43.8711 17.7032 44.0107 17.9916 44.2114 18.2227C44.4125 18.448 44.6395 18.5796 44.8917 18.6171C45.1608 18.6614 45.4246 18.5952 45.6833 18.4195C45.9483 18.238 46.2237 18.1235 46.5098 18.0762C46.7958 18.0292 47.0596 18.0616 47.3022 18.1734C47.8541 18.4307 48.1448 19.0082 48.1748 19.9062Z" fill="#FCBA04"/>
<path fill-rule="evenodd" clip-rule="evenodd" d="M9.02493 12.8072C9.10223 12.778 9.2049 12.7594 9.33296 12.7514C9.20641 12.7364 9.10223 12.7406 9.01959 12.7634C8.91953 12.7853 8.82305 12.8359 8.73039 12.916C8.60004 13.0398 8.48779 13.2283 8.39426 13.482C8.29005 13.7984 8.22203 14.2161 8.19009 14.7347L8.17821 14.899L8.1754 15.0548C8.1669 15.1759 8.15657 15.2766 8.14501 15.3566C8.11884 15.5573 8.06392 15.7531 7.98086 15.9438C7.80132 16.3418 7.50899 16.6186 7.10413 16.7744C7.30985 16.7313 7.50169 16.6413 7.67979 16.5036C7.84545 16.371 7.98206 16.2041 8.08929 16.0038C8.18893 15.8258 8.25892 15.6196 8.29925 15.3851C8.31735 15.2939 8.32813 15.1847 8.33151 15.0574L8.34306 14.9021L8.35417 14.7468C8.3788 14.2507 8.43463 13.8407 8.52194 13.5174C8.59116 13.2794 8.6791 13.1005 8.78647 12.9809C8.86222 12.8936 8.94187 12.8359 9.02493 12.8072ZM3.18813 12.5999C3.43688 12.3634 3.71494 12.2419 4.02219 12.2353C3.87375 12.2069 3.71374 12.2157 3.5426 12.2611C3.38302 12.3076 3.23545 12.3864 3.10004 12.4979C2.85469 12.6887 2.65902 12.9521 2.51286 13.289C2.2614 13.8842 2.10337 14.5068 2.03872 15.1558L2.18488 14.6975L2.3302 14.2479C2.4479 13.9034 2.55942 13.6051 2.66472 13.3521C2.79662 13.049 2.97089 12.7987 3.18813 12.5999ZM9.34681 12.0838C10.1727 12.1035 10.7865 12.7007 11.1872 13.8757C11.574 15.004 11.6821 16.3863 11.5109 18.0238C11.2929 20.1494 11.0007 21.6621 10.6342 22.5616C10.1327 23.8044 9.37252 24.3885 8.35347 24.3147C7.74907 24.2704 7.30216 24.0036 7.01387 23.514C6.69305 22.9869 6.59355 22.2505 6.7142 21.3042C6.77854 20.7416 6.72773 20.324 6.56239 20.0514C6.43246 19.8453 6.23819 19.733 5.979 19.7142C5.44913 19.6752 5.18611 20.1917 5.18917 21.2626C5.19268 22.7277 4.6359 23.5002 3.51885 23.581C3.01853 23.614 2.57632 23.446 2.19219 23.0765C1.72152 22.6258 1.40846 21.9171 1.25271 20.9508C1.04049 19.6503 0.994361 18.2924 1.1147 16.8774C1.23851 15.4105 1.52118 14.1518 1.96219 13.1012C2.18716 12.5565 2.51209 12.1458 2.93744 11.8697C3.37497 11.5832 3.84989 11.4994 4.36209 11.6174C5.00007 11.7624 5.44032 12.072 5.68373 12.5468C5.95754 13.0821 6.00286 13.8523 5.81985 14.8575C5.75903 15.2119 5.79293 15.5069 5.92058 15.7419C6.04822 15.971 6.25281 16.1076 6.53316 16.151C6.8135 16.1948 7.04732 16.1276 7.23382 15.9503C7.45686 15.7465 7.57565 15.4254 7.59026 14.9864C7.61676 13.9811 7.76868 13.2486 8.04512 12.7879C8.32318 12.3107 8.75689 12.0758 9.34681 12.0838Z" fill="#008BD0"/>
<path fill-rule="evenodd" clip-rule="evenodd" d="M18.5592 20.479C18.946 20.3579 19.2894 20.2656 19.5897 20.2017C19.4337 20.1733 19.2521 20.1733 19.0441 20.2017C18.8825 20.219 18.7034 20.2598 18.5073 20.3232C18.438 20.3406 18.3515 20.3725 18.2473 20.4182L18.1262 20.4617L18.0051 20.5136C17.8374 20.5717 17.6643 20.6174 17.4856 20.652C17.6528 20.6866 17.8374 20.6812 18.0397 20.6348C18.1089 20.6236 18.1954 20.6001 18.2993 20.5656L18.4292 20.5224L18.5592 20.479ZM17.5201 17.1016L17.3902 17.1451L17.2518 17.1886C17.3383 17.2174 17.4363 17.2289 17.546 17.2231C17.5863 17.2231 17.6356 17.2174 17.6932 17.2058L17.7539 17.197L17.8232 17.1886C17.9039 17.177 17.9905 17.1682 18.0827 17.1624C18.1927 17.1624 18.2819 17.1712 18.3515 17.1886C18.2993 17.1136 18.2158 17.0613 18.1 17.0324C18.0135 17.0094 17.9124 17.0067 17.797 17.024C17.7567 17.0298 17.7074 17.0413 17.6498 17.0586L17.5894 17.0759L17.5201 17.1016ZM15.9267 12.4777C16.1458 12.4142 16.4058 12.3712 16.7061 12.3476C16.4519 12.3304 16.1866 12.3476 15.9093 12.3996C15.6321 12.4515 15.3784 12.5353 15.1472 12.6506C14.9108 12.7664 14.6854 12.9191 14.472 13.1099C14.2986 13.2771 14.1344 13.4966 13.9783 13.7678C13.7475 14.195 13.5715 14.7002 13.4502 15.2832C13.346 15.7854 13.2884 16.3137 13.2768 16.8678L13.3377 16.4695C13.3606 16.3195 13.3838 16.1899 13.4069 16.08C13.453 15.8089 13.5076 15.5516 13.5715 15.3093C13.7329 14.7091 13.9179 14.2211 14.1255 13.8459C14.2639 13.5978 14.417 13.3928 14.5846 13.231C14.752 13.0636 14.9596 12.9079 15.208 12.7633C15.4214 12.6423 15.6609 12.5469 15.9267 12.4777ZM17.9789 19.8815C18.9603 19.5118 19.7282 19.4342 20.2822 19.6477C20.8075 19.8499 21.0675 20.2829 21.0617 20.9466C21.0559 21.443 20.8137 21.9398 20.3346 22.4359C19.884 22.9034 19.3041 23.2907 18.5938 23.5965C17.8662 23.914 17.1476 24.0844 16.4378 24.1074C15.6583 24.1306 14.9999 23.9686 14.4631 23.6225C13.9206 23.2703 13.4787 22.592 13.1384 21.5872C12.8208 20.652 12.6362 19.5842 12.5843 18.3832C12.5381 17.1771 12.6362 16.0715 12.8784 15.0667C13.1384 13.9758 13.5368 13.1791 14.0736 12.6768C14.645 12.1343 15.3437 11.8109 16.1693 11.707C16.8964 11.6205 17.621 11.707 18.3427 11.9666C19.0295 12.2208 19.5462 12.57 19.8928 13.0145C20.2681 13.482 20.3546 13.9438 20.1526 14.3999C20.0312 14.6657 19.8262 14.859 19.5379 14.9802C19.324 15.0667 19.0268 15.1248 18.6457 15.1532L18.4035 15.1709L18.1697 15.1794C17.9789 15.1909 17.8259 15.2056 17.7106 15.2229C17.3756 15.2632 17.1275 15.344 16.9656 15.4651C16.8561 15.5463 16.7811 15.6558 16.7407 15.7942C16.7061 15.9269 16.7088 16.0568 16.7492 16.1838C16.8591 16.4841 17.1045 16.5853 17.4856 16.4868C17.9359 16.3719 18.3223 16.4033 18.6457 16.5821C18.9633 16.7555 19.1337 17.0213 19.1568 17.3789C19.1798 17.7658 19.0529 18.0834 18.7756 18.3314C18.4811 18.6029 18.025 18.7675 17.4075 18.8251C17.1937 18.8482 17.0379 18.9378 16.9399 19.0935C16.8415 19.2435 16.8188 19.4023 16.8707 19.5696C16.9226 19.7488 17.0379 19.8699 17.2168 19.9334C17.4247 20.0145 17.6786 19.9972 17.9789 19.8815Z" fill="#FCBA04"/>
<path fill-rule="evenodd" clip-rule="evenodd" d="M54.8482 20.7973C55.2535 20.8015 55.6088 20.82 55.9138 20.8522C55.7746 20.7769 55.6015 20.7208 55.3951 20.6838C55.2358 20.65 55.0532 20.6335 54.8471 20.633C54.7759 20.6281 54.6836 20.6316 54.5706 20.643L54.4418 20.6469L54.3106 20.6589C54.1334 20.662 53.9542 20.6523 53.7735 20.63C53.9219 20.7146 54.0996 20.7661 54.306 20.785C54.3753 20.7953 54.4648 20.7999 54.5744 20.7992L54.7113 20.7984L54.8482 20.7973ZM54.9044 17.2642L54.7674 17.2653L54.6225 17.2636C54.6959 17.318 54.7855 17.3593 54.8917 17.3877C54.9302 17.4 54.9786 17.41 55.037 17.4166L55.0974 17.4273L55.1659 17.4403C55.2462 17.4546 55.3312 17.4731 55.4208 17.4961C55.5254 17.5299 55.6077 17.5657 55.668 17.6038C55.6418 17.5165 55.5784 17.4411 55.4777 17.3777C55.4024 17.3293 55.307 17.2951 55.192 17.2757C55.1517 17.2689 55.1016 17.2646 55.0413 17.2636L54.9782 17.2611L54.9044 17.2642ZM54.8194 12.3741C55.0475 12.3814 55.3078 12.4206 55.6008 12.4914C55.3642 12.3964 55.1067 12.331 54.8271 12.2945C54.5472 12.2583 54.2799 12.2595 54.0246 12.2977C53.7639 12.3346 53.5024 12.4103 53.2401 12.5253C53.0236 12.631 52.7994 12.7887 52.5671 12.9987C52.2157 13.3337 51.892 13.7596 51.5963 14.2765C51.3421 14.7218 51.1241 15.2063 50.9417 15.7296L51.1226 15.3697C51.1906 15.2343 51.2528 15.1179 51.3089 15.0206C51.4367 14.7767 51.5681 14.5494 51.7035 14.3384C52.0431 13.8177 52.3695 13.4109 52.6833 13.1182C52.8917 12.9252 53.1005 12.7775 53.3098 12.6757C53.5208 12.568 53.7666 12.4842 54.0473 12.4238C54.2879 12.3742 54.5452 12.358 54.8194 12.3741ZM54.4814 20.0498C55.5288 20.0017 56.2829 20.1651 56.7439 20.5396C57.1812 20.8942 57.2942 21.3863 57.0835 22.0158C56.9244 22.4862 56.5401 22.8834 55.931 23.2075C55.3585 23.5128 54.6871 23.7013 53.9172 23.7724C53.1271 23.8496 52.3911 23.7893 51.7085 23.5916C50.9602 23.3724 50.3846 23.0153 49.9809 22.52C49.5736 22.017 49.3636 21.2356 49.3502 20.1751C49.3376 19.1872 49.4921 18.1148 49.8143 16.9565C50.1435 15.7949 50.5787 14.774 51.1198 13.8938C51.7043 12.9362 52.3295 12.3018 52.9955 11.9903C53.7065 11.6512 54.471 11.5596 55.2881 11.7162C56.0068 11.8589 56.669 12.1653 57.275 12.6352C57.8494 13.0893 58.2329 13.5815 58.4248 14.1111C58.637 14.6716 58.5766 15.1377 58.2433 15.5092C58.046 15.7241 57.7911 15.8445 57.4792 15.8707C57.2493 15.8868 56.9489 15.8498 56.5775 15.7595L56.3418 15.7011L56.1164 15.6369C55.9318 15.5892 55.7819 15.5553 55.6669 15.5361C55.3358 15.4712 55.0747 15.4712 54.8837 15.5364C54.754 15.5795 54.6491 15.6603 54.5675 15.7799C54.4937 15.8953 54.456 16.0199 54.4553 16.1529C54.4668 16.4724 54.669 16.6444 55.0617 16.669C55.5254 16.6985 55.8834 16.8482 56.1356 17.1185C56.384 17.3811 56.4636 17.6864 56.3752 18.034C56.2775 18.409 56.0584 18.6715 55.7185 18.822C55.3543 18.9889 54.8698 19.0042 54.2645 18.8681C54.0542 18.8243 53.8781 18.8611 53.737 18.9788C53.597 19.0915 53.5258 19.2353 53.5235 19.4103C53.5177 19.5968 53.5897 19.7478 53.7404 19.8633C53.9131 20.0048 54.1599 20.0667 54.4814 20.0498Z" fill="#CF1600"/>
<path fill-rule="evenodd" clip-rule="evenodd" d="M66.0809 20.2768C66.0974 20.0872 66.0678 19.8992 65.9917 19.7124C65.9924 19.9399 65.9774 20.1207 65.9459 20.2545C65.9036 20.4305 65.8279 20.5798 65.7187 20.7025C65.6191 20.8116 65.4772 20.9132 65.2934 21.0066C65.1742 21.0663 65.0073 21.1366 64.7919 21.2173C64.9796 21.2228 65.1653 21.1935 65.3479 21.1292C65.5467 21.057 65.7113 20.952 65.8417 20.8143C65.9813 20.6636 66.0612 20.4844 66.0809 20.2768ZM63.8733 20.3983C64.0041 20.5591 64.2636 20.6114 64.652 20.5556C65.0408 20.5002 65.2668 20.3968 65.331 20.2464C65.3733 20.1464 65.3738 20.0003 65.3314 19.808C65.291 19.6276 65.2214 19.4458 65.1222 19.2624C64.8811 18.8098 64.6234 18.6022 64.3485 18.6399C64.1197 18.6702 63.9471 18.9286 63.8313 19.4143C63.719 19.8881 63.7333 20.2161 63.8733 20.3983ZM61.8438 15.056C62.0491 14.6203 62.2813 14.2415 62.5405 13.9201C62.8682 13.5175 63.2253 13.2622 63.6114 13.1541C63.3995 13.1822 63.1869 13.2595 62.9731 13.3868C62.7774 13.5171 62.5994 13.6652 62.4386 13.8309C62.1649 14.1316 61.916 14.5157 61.6918 14.9836C61.4869 15.4255 61.3334 15.8589 61.2316 16.2841C61.1231 16.7457 61.0543 17.1948 61.0239 17.6319C61.1405 17.1109 61.252 16.6725 61.3592 16.3165C61.4977 15.862 61.6591 15.4421 61.8438 15.056ZM59.1323 22.3506C59.2097 22.2855 59.3205 22.2094 59.4646 22.1226L59.6477 22.0056L59.8222 21.8903C59.5362 21.9299 59.2727 22.0388 59.0324 22.2172C58.8909 22.3214 58.7909 22.4279 58.7321 22.5367C58.6445 22.6847 58.6241 22.8312 58.6702 22.9758C58.6894 22.8385 58.7436 22.7189 58.8328 22.617C58.9063 22.5294 59.0062 22.4405 59.1323 22.3506ZM69.3714 19.6854C70.2173 19.7854 70.8353 20.0703 71.2252 20.5405C71.6236 21.027 71.6951 21.6057 71.4389 22.2775C71.1675 22.9988 70.3926 23.5684 69.1145 23.9872C68.2535 24.2698 66.9957 24.5213 65.3414 24.7423C63.5256 24.9773 61.9857 25.0138 60.7209 24.852C59.3062 24.6666 58.4507 24.2471 58.1542 23.5926C57.9407 23.1296 57.9407 22.7059 58.1545 22.321C58.3906 21.8923 58.8667 21.5419 59.5838 21.2708C59.8368 21.172 60.0099 21.0454 60.1022 20.8905C60.186 20.7544 60.2342 20.5425 60.2468 20.2537C60.2496 20.1599 60.2482 20.0053 60.2436 19.7896L60.2489 19.6573L60.2428 19.5093C60.2428 19.3981 60.2439 19.2959 60.2466 19.2017C60.252 18.6457 60.2905 18.093 60.3612 17.5443C60.5404 16.1658 60.9288 15.0022 61.5271 14.0543C62.1201 13.113 62.7945 12.5912 63.5498 12.4888C64.4315 12.3728 65.2621 12.6911 66.0419 13.4444C66.8725 14.2596 67.544 15.492 68.0565 17.1409C68.1234 17.3405 68.1818 17.5446 68.2322 17.7532C68.2729 17.8984 68.3149 18.0704 68.3575 18.268C68.4495 18.6626 68.516 18.9178 68.5579 19.034C68.6263 19.2455 68.7179 19.3973 68.8321 19.4904C68.9535 19.5938 69.1333 19.6593 69.3714 19.6854Z" fill="#008BD0"/>
<path fill-rule="evenodd" clip-rule="evenodd" d="M81.2693 12.5214C81.4596 12.3426 81.7164 12.2357 82.0398 12.2011C81.7049 12.1665 81.4191 12.2388 81.1827 12.4176C81.067 12.5042 80.9746 12.6314 80.9054 12.7987C80.8593 12.9256 80.8278 13.0755 80.81 13.249C80.7986 13.5085 80.8362 13.8062 80.9227 14.1407C80.9862 14.3891 81.0815 14.6663 81.2084 14.9721L81.1308 14.5391L81.0438 14.1149C80.9862 13.7569 80.9631 13.4712 80.9746 13.2574C80.9862 13.1075 81.0123 12.9717 81.0527 12.8506C81.0989 12.7179 81.1712 12.6079 81.2693 12.5214ZM84.3002 13.0063C84.6639 13.6819 84.8742 14.6517 84.9322 15.9161C84.9899 17.117 84.9035 18.329 84.6723 19.553C84.4354 20.8288 84.092 21.8275 83.6418 22.5493C83.1396 23.3629 82.5739 23.6978 81.9448 23.5536C81.6214 23.4786 81.4077 23.2999 81.3038 23.0168C81.223 22.7857 81.1911 22.3993 81.2084 21.8564C81.2084 21.7525 81.2142 21.6199 81.2258 21.458L81.2346 21.2415L81.2431 21.0165C81.2661 20.6297 81.2807 20.2947 81.2865 20.0118C81.3038 19.123 81.2635 18.2598 81.1654 17.4226C81.1246 17.0762 81.0266 16.6405 80.8709 16.1153L80.767 15.7861L80.6632 15.4485C80.5763 15.177 80.5128 14.9578 80.4724 14.7901C80.1783 13.7396 80.1694 12.9429 80.4467 12.4003C80.5966 12.1115 80.8331 11.8893 81.1565 11.7335C81.48 11.5775 81.8321 11.5143 82.2132 11.5428C82.6169 11.572 82.9954 11.7016 83.3476 11.9327C83.7399 12.1923 84.0574 12.5503 84.3002 13.0063ZM77.7277 20.159C77.8315 20.009 77.8891 19.8386 77.9007 19.6483C77.918 19.4634 77.8918 19.2873 77.8226 19.12C77.8226 19.3103 77.808 19.4807 77.7796 19.6307C77.733 19.8099 77.6696 19.9571 77.5888 20.0725C77.4101 20.3498 77.1413 20.5201 76.7836 20.5835C76.9624 20.6181 77.1385 20.5951 77.312 20.5139C77.485 20.4389 77.6235 20.3209 77.7277 20.159ZM76.2034 19.4923C76.2899 19.6657 76.4083 19.7898 76.5583 19.8648C76.7029 19.9398 76.8355 19.9456 76.9567 19.8821C77.0836 19.8187 77.1586 19.706 77.182 19.5441C77.2108 19.3826 77.182 19.2154 77.0955 19.042C77.0086 18.8746 76.8901 18.7535 76.7401 18.6782C76.5959 18.6032 76.4602 18.5947 76.3334 18.6524C76.2122 18.7158 76.14 18.8316 76.1169 18.9989C76.088 19.1603 76.1169 19.3249 76.2034 19.4923ZM75.3981 12.3222C75.5309 12.253 75.6666 12.2069 75.805 12.1838C75.5393 12.1607 75.2593 12.2503 74.9652 12.4522C74.7399 12.6022 74.5207 12.8071 74.3069 13.067C74.1223 13.2862 73.9577 13.5347 73.8135 13.8115C73.692 14.0253 73.5735 14.2937 73.4582 14.6172L73.6835 14.2445C73.7758 14.0945 73.8566 13.9704 73.9258 13.8723C74.1165 13.5777 74.2868 13.3439 74.4368 13.1709C74.6329 12.9283 74.8322 12.7237 75.0344 12.5561C75.1728 12.4522 75.2943 12.3741 75.3981 12.3222ZM77.6497 16.5132C78.6829 16.8309 79.4508 17.3996 79.953 18.2194C80.409 18.9758 80.5706 19.8014 80.4379 20.6958C80.2995 21.5909 79.898 22.3354 79.2343 22.9299C78.5125 23.5825 77.6004 23.9143 76.4979 23.9259C75.3374 23.9374 74.3792 23.6202 73.6228 22.9734C72.9476 22.3905 72.4711 21.5791 72.1942 20.5401C71.94 19.5876 71.8766 18.5428 72.0035 17.4054C72.1304 16.3086 72.4134 15.2867 72.8522 14.3399C73.2793 13.4277 73.7555 12.729 74.2811 12.2442C74.7426 11.8111 75.2047 11.5747 75.6666 11.5343C76.0938 11.4939 76.4602 11.6182 76.7663 11.9065C77.0663 12.1896 77.2482 12.5734 77.312 13.0582C77.3524 13.399 77.3378 13.7889 77.2686 14.2273C77.2455 14.3603 77.2108 14.5391 77.1647 14.7644L77.1212 15.0066C77.104 15.0994 77.0894 15.1797 77.0781 15.2493C77.0202 15.5954 77.0232 15.8583 77.0867 16.0372C77.1674 16.2683 77.355 16.4267 77.6497 16.5132Z" fill="#198849"/>
<path fill-rule="evenodd" clip-rule="evenodd" d="M24.4838 12.2903C24.5876 12.2383 24.7091 12.1891 24.8475 12.143L25.0379 12.0826L25.2286 12.0218C24.6684 12.1083 24.1662 12.2875 23.7216 12.5586C23.5486 12.6513 23.3321 12.8098 23.0721 13.0351L23.0029 13.1128L22.9249 13.1823C22.8672 13.24 22.8242 13.2888 22.7953 13.3293L22.6653 13.4853L22.5441 13.6499C22.2381 14.0944 22.0562 14.5993 21.9985 15.1649C21.9466 15.6675 21.9524 16.2017 22.0158 16.7674L22.0243 16.369C22.0301 16.219 22.0389 16.0859 22.0505 15.9706L22.0766 15.5722C22.0881 15.428 22.1054 15.298 22.1285 15.1827C22.2151 14.6282 22.3996 14.149 22.6826 13.7449C22.7807 13.5892 22.948 13.393 23.1848 13.1562C23.3983 12.9543 23.6005 12.7924 23.7908 12.6713C23.8312 12.6367 23.8862 12.5991 23.9554 12.5586L24.1288 12.4632L24.3019 12.3767C24.3711 12.3421 24.4318 12.3133 24.4838 12.2903ZM30.5801 13.9095C30.9781 14.7581 31.2466 15.7368 31.3853 16.845C31.518 17.8902 31.518 18.9119 31.3853 19.9105C31.2585 20.9095 31.0186 21.7178 30.6667 22.3354C30.2856 23.0049 29.8238 23.3543 29.2812 23.3829C28.6344 23.4235 28.1468 23.1809 27.8176 22.6556C27.3731 21.9516 27.1824 20.7218 27.2459 18.9669C27.2689 18.1759 27.1939 17.5207 27.0209 17.0012C26.8306 16.4466 26.5649 16.1898 26.2241 16.2301C25.6181 16.3113 25.4536 17.0876 25.7308 18.5597C26.0888 20.4188 26.1896 21.7263 26.0338 22.4822C25.895 23.1521 25.5055 23.5274 24.8649 23.6082C24.4146 23.6659 23.9528 23.4467 23.4794 22.9498C23.0349 22.4822 22.6365 21.8274 22.2843 20.9845C21.4933 19.108 21.1902 17.1915 21.3748 15.2346C21.4733 14.184 21.9146 13.2946 22.6999 12.5674C23.4275 11.8919 24.3161 11.4677 25.3671 11.2943C26.4234 11.1154 27.4136 11.2367 28.3371 11.658C29.3474 12.1199 30.0949 12.8705 30.5801 13.9095Z" fill="#D11500"/>
<path fill-rule="evenodd" clip-rule="evenodd" d="M34.2248 15.1037C34.556 15.3748 34.8839 15.6463 35.2154 15.9143C35.4457 16.1004 35.5845 16.0531 35.6445 15.7567C35.7392 15.3214 35.8241 14.883 35.9094 14.4476C35.9313 14.4441 35.9502 14.4441 35.969 14.4411C36.0483 14.8165 36.1463 15.186 36.2029 15.5644C36.4205 17.0249 36.2221 17.7805 35.4745 19.0548C35.3607 19.2474 35.4019 19.4173 35.5722 19.5154C35.7329 19.6038 35.8814 19.5532 35.9979 19.3578C37.0988 17.484 37.1585 16.1319 36.4897 14.0912C36.4613 14.0124 36.314 13.5617 36.2824 13.4763L35.3984 13.659C35.0104 13.9017 34.6505 14.1289 34.2848 14.3562C33.818 14.6496 33.8084 14.7534 34.2248 15.1037Z" fill="#198849"/>
<path fill-rule="evenodd" clip-rule="evenodd" d="M29.2133 25.7812C29.2133 25.7812 28.7096 25.5605 28.4942 25.8101C28.2292 26.1169 28.5287 26.5107 28.8949 26.6634L29.2133 25.7812Z" fill="#F4D1A6" stroke="#010B25" stroke-width="0.1982" stroke-linecap="round"/>
<path fill-rule="evenodd" clip-rule="evenodd" d="M39.0042 26.8269C39.0042 26.8269 39.5341 26.6796 39.7121 26.9572C39.9305 27.2987 39.5598 27.6509 39.176 27.7505L39.0042 26.8269Z" fill="#F4D1A6" stroke="#010B25" stroke-width="0.1982" stroke-linecap="round"/>
<path d="M29.9763 36.2041C29.9763 36.2041 28.8467 38.8292 27.9952 39.7336" stroke="#010B25" stroke-width="0.1982" stroke-linecap="round"/>
<path d="M34.7697 41.2816C34.7697 41.2816 34.7827 39.9785 34.9169 37.3921" stroke="#010B25" stroke-width="0.1982" stroke-linecap="round"/>
<path fill-rule="evenodd" clip-rule="evenodd" d="M35.019 41.4365C35.2132 41.7749 35.2643 42.602 34.9267 42.82C34.6967 42.9684 34.1957 42.9531 34.1957 42.1283C34.1957 41.3034 34.8248 41.0981 35.019 41.4365Z" fill="#FCBA04" stroke="#010B25" stroke-width="0.1982" stroke-linecap="round"/>
<path d="M35.019 41.4365C35.2132 41.7749 35.2643 42.602 34.9267 42.82C34.6967 42.9684 34.1957 42.9531 34.1957 42.1283C34.1957 41.3034 34.8248 41.0981 35.019 41.4365Z" stroke="#010B25" stroke-width="0.1982"/>
<path fill-rule="evenodd" clip-rule="evenodd" d="M28.1216 39.9105C28.2243 40.1609 28.1178 40.5254 27.9224 40.7131C27.704 40.923 27.429 41.1157 27.2341 41.171C26.8618 41.2775 26.6877 40.6658 26.9968 40.1528C27.1987 39.8179 27.9024 39.3761 28.1216 39.9105Z" fill="#FCBA04" stroke="#010B25" stroke-width="0.1982"/>
<path d="M28.1216 39.9105C28.2243 40.1609 28.1178 40.5254 27.9224 40.7131C27.704 40.923 27.429 41.1157 27.2341 41.171C26.8618 41.2775 26.6877 40.6658 26.9968 40.1528C27.1987 39.8179 27.9024 39.3761 28.1216 39.9105Z" stroke="#010B25" stroke-width="0.1982"/>
<path fill-rule="evenodd" clip-rule="evenodd" d="M33.3251 35.6988L33.0306 37.14C34.5783 37.7083 36.7525 37.1027 36.7525 37.1027L36.6644 35.5435L33.3251 35.6988Z" fill="#0238AF" stroke="#010B25" stroke-width="0.1982"/>
<path fill-rule="evenodd" clip-rule="evenodd" d="M29.4567 34.2554C29.2618 34.5015 28.9322 34.9514 28.6377 35.4874C29.0876 35.7616 29.5402 35.9981 29.9532 36.193C30.8838 36.6364 31.6079 36.8729 31.6079 36.8729L31.8028 36.0377L31.9582 35.3855L29.4567 34.2554Z" fill="#0238AF" stroke="#010B25" stroke-width="0.1982"/>
<path fill-rule="evenodd" clip-rule="evenodd" d="M30.2945 31.8608C29.4617 32.7588 29.0879 34.0304 29.0879 34.0304C29.2109 34.1097 29.334 34.1862 29.4543 34.2604C30.3365 34.7895 31.1762 35.149 31.9584 35.3858C32.4387 35.532 32.8958 35.6343 33.325 35.6989C34.8801 35.9358 36.0729 35.7132 36.6643 35.5528C36.9335 35.4786 37.0777 35.4182 37.0777 35.4182C36.9289 33.5967 36.6039 32.9537 36.5205 32.8192L30.2945 31.8608Z" fill="#D11500" stroke="#010B25" stroke-width="0.1982"/>
<path d="M36.6436 19.1035C36.6436 19.1035 37.776 21.0104 36.7828 23.7775" stroke="#010B25" stroke-width="0.1982" stroke-linecap="round"/>
<path d="M35.8646 18.8994C35.8646 18.8994 32.9663 19.5881 32.2499 23.372" stroke="#010B25" stroke-width="0.1982" stroke-linecap="round"/>
<path fill-rule="evenodd" clip-rule="evenodd" d="M36.3923 18.3885C36.6718 18.5644 36.7445 18.8043 36.4749 18.9269C36.2053 19.0496 35.2371 18.8592 35.0983 18.5539C34.9941 18.3221 35.3501 17.7492 36.3923 18.3885Z" fill="#F4D1A6" stroke="#010B25" stroke-width="0.1982" stroke-linecap="round"/>
<path d="M36.3923 18.3885C36.6718 18.5644 36.7445 18.8043 36.4749 18.9269C36.2053 19.0496 35.2371 18.8592 35.0983 18.5539C34.9941 18.3221 35.3501 17.7492 36.3923 18.3885Z" stroke="#010B25" stroke-width="0.1982" stroke-linecap="round"/>
<path fill-rule="evenodd" clip-rule="evenodd" d="M36.0162 18.5316C35.7151 18.6801 35.6163 18.9155 35.8766 19.0677C36.1365 19.22 37.1356 19.1281 37.3075 18.8339C37.4374 18.6097 37.1371 17.9933 36.0162 18.5316Z" fill="#F4D1A6" stroke="#010B25" stroke-width="0.1982" stroke-linecap="round"/>
<path d="M36.0162 18.5316C35.7151 18.6801 35.6163 18.9155 35.8766 19.0677C36.1365 19.22 37.1356 19.1281 37.3075 18.8339C37.4374 18.6097 37.1371 17.9933 36.0162 18.5316Z" stroke="#010B25" stroke-width="0.1982" stroke-linecap="round"/>
<path fill-rule="evenodd" clip-rule="evenodd" d="M39.0926 27.0462C39.0926 27.0462 38.4897 23.9246 35.6161 23.357C32.7429 22.7895 30.2599 23.6054 29.2663 25.6626C28.273 27.7202 28.5026 29.8467 29.5081 31.068C31.2108 33.1361 35.5722 34.1408 37.7049 32.0836C39.8375 30.0259 39.0926 27.0462 39.0926 27.0462Z" fill="#F4D1A6" stroke="#010B25" stroke-width="0.1982" stroke-linecap="round"/>
<path d="M39.0926 27.0462C39.0926 27.0462 38.4897 23.9246 35.6161 23.357C32.7429 22.7895 30.2599 23.6054 29.2663 25.6626C28.273 27.7202 28.5026 29.8467 29.5081 31.068C31.2108 33.1361 35.5722 34.1408 37.7049 32.0836C39.8375 30.0259 39.0926 27.0462 39.0926 27.0462Z" stroke="#010B25" stroke-width="0.1982" stroke-linecap="round"/>
<path d="M36.0331 25.2811C36.0331 25.2811 34.9236 23.4455 33.0306 24.7755" stroke="#010B25" stroke-width="0.1982" stroke-linecap="round"/>
<path d="M34.4759 25.3879C34.4759 25.3879 34.8635 25.8782 34.1122 26.1374" stroke="#010B25" stroke-width="0.1982" stroke-linecap="round"/>
<path d="M32.3558 26.4876C32.3558 26.4876 31.6003 27.6493 30.8451 26.3103" stroke="#010B25" stroke-width="0.1982" stroke-linecap="round"/>
<path d="M35.9634 27.0947C35.9634 27.0947 36.719 28.2564 37.4743 26.9175" stroke="#010B25" stroke-width="0.1982" stroke-linecap="round"/>
<path d="M39.2185 28.2883C39.2185 28.2883 35.5542 30.1256 28.8234 26.9998" stroke="#010B25" stroke-width="0.1982" stroke-linecap="round"/>
<path d="M38.6354 28.4963C38.6354 28.4963 38.6315 32.3848 34.1956 33.1565" stroke="#010B25" stroke-width="0.1982" stroke-linecap="round"/>
<path d="M37.9486 28.687C37.9486 28.687 37.9128 31.759 33.9044 33.1364" stroke="#010B25" stroke-width="0.1982" stroke-linecap="round"/>
<path d="M37.1571 28.8208C37.1571 28.8208 37.0668 31.2118 33.6632 33.111" stroke="#010B25" stroke-width="0.1982" stroke-linecap="round"/>
<path d="M36.3436 28.8208C36.3436 28.8208 36.2082 30.7614 33.5 33.0898" stroke="#010B25" stroke-width="0.1982" stroke-linecap="round"/>
<path d="M35.4102 28.8208C35.4102 28.8208 35.1198 30.938 33.4214 33.0783" stroke="#010B25" stroke-width="0.1982" stroke-linecap="round"/>
<path d="M34.5 28.7334C34.5 28.7334 34.458 30.8072 33.3433 33.066" stroke="#010B25" stroke-width="0.1982" stroke-linecap="round"/>
<path d="M29.3827 27.269C29.3827 27.269 28.4105 31.2309 32.5896 32.9075" stroke="#010B25" stroke-width="0.1982" stroke-linecap="round"/>
<path d="M30.129 27.5764C30.129 27.5764 29.6744 30.7265 32.5896 32.9076" stroke="#010B25" stroke-width="0.1982" stroke-linecap="round"/>
<path d="M30.9371 27.9062C30.9371 27.9062 30.5168 30.4957 32.8291 32.9613" stroke="#010B25" stroke-width="0.1982" stroke-linecap="round"/>
<path d="M31.6787 28.1833C31.6787 28.1833 31.5768 31.0992 33.0346 33.0101" stroke="#010B25" stroke-width="0.1982" stroke-linecap="round"/>
<path d="M32.4875 28.3406C32.4875 28.3406 32.5433 30.947 33.1705 33.0361" stroke="#010B25" stroke-width="0.1982" stroke-linecap="round"/>
<path d="M33.4999 28.624C33.4999 28.624 33.2927 32.2645 33.2792 33.0896" stroke="#010B25" stroke-width="0.1982" stroke-linecap="round"/>
<path fill-rule="evenodd" clip-rule="evenodd" d="M28.7867 27.085L28.6274 28.1832L28.7543 29.4837L29.0961 30.4339L29.6307 31.2094L30.3556 31.8605L31.4192 32.4934L33.1708 33.0779L34.4159 33.211L35.6321 33.1106L36.9729 32.6276L37.7051 32.0832L38.3461 31.3221L38.7922 30.4988L39.1168 29.4107L39.2152 28.4961L39.0863 28.3785L37.3955 28.7481L35.1972 28.7908L33.323 28.527L31.4922 28.0466L29.1646 27.155C29.1646 27.155 28.7958 27.0215 28.7867 27.085Z" fill="#E26311" stroke="#040613" stroke-width="0.1982" stroke-linecap="round"/>
<path fill-rule="evenodd" clip-rule="evenodd" d="M34.4943 10.2249C34.6604 10.3198 34.8327 10.3613 35.0107 10.3494C34.6781 10.2249 34.4143 10.0318 34.2182 9.77077C34.0402 9.52725 33.9186 9.21856 33.8532 8.84437C33.7698 9.2128 33.8441 9.55416 34.0759 9.86876C34.1943 10.0288 34.3339 10.1476 34.4943 10.2249ZM35.8302 8.3457C35.7233 8.16756 35.5748 8.06064 35.3848 8.02533C35.1949 7.99568 35.0196 8.05183 34.8595 8.19451C34.6992 8.33108 34.6012 8.51213 34.5654 8.73745C34.5239 8.96319 34.5597 9.16504 34.6723 9.34314C34.7792 9.52725 34.9277 9.6342 35.1177 9.66382C35.3075 9.69337 35.4829 9.63996 35.6433 9.5035C35.8033 9.36693 35.9013 9.18588 35.937 8.96014C35.9724 8.73482 35.937 8.5298 35.8302 8.3457ZM37.6201 2.90454C37.9466 3.20748 38.2493 3.58747 38.5284 4.04429L38.6176 4.20461L38.7064 4.36496L38.8667 4.69446L39.0094 5.04174L39.1428 5.38937C39.0421 4.89635 38.8757 4.42729 38.6442 3.98192C38.4069 3.51898 38.1039 3.1183 37.7359 2.77995C37.344 2.41764 36.9133 2.15659 36.4446 1.99627C36.2189 1.91897 35.9755 1.8624 35.7144 1.82709L35.5272 1.809L35.3402 1.80014L34.9661 1.809C35.5064 1.85085 35.9843 1.95776 36.4001 2.12967C36.8572 2.31389 37.2641 2.5723 37.6201 2.90454ZM38.012 2.20999C39.0925 3.13598 39.7662 4.46032 40.0335 6.1819C40.2888 7.85616 40.0927 9.40541 39.4459 10.8305C38.7511 12.374 37.6824 13.3388 36.2397 13.7249C34.8861 14.0929 33.6095 13.7425 32.4105 12.6739C31.3181 11.7003 30.5401 10.3883 30.0772 8.73745C29.6023 7.04552 29.6142 5.52899 30.113 4.18697C30.6766 2.67304 31.778 1.71438 33.4168 1.31064C35.2514 0.859155 36.783 1.15911 38.012 2.20999Z" fill="#198849"/>
</svg>
